<svg width="17" height="13" viewBox="0 0 17 13" fill="none" xmlns="http://www.w3.org/2000/svg">
<path d="M8.5 12C9.9653 11.9758 11.3845 11.4796 12.55 10.5838C13.3689 9.9341 13.8059 9.52684 14.5273 8.69313C15.0925 8.01576 15.5861 7.28074 16 6.50001C16 6.50001 13.2727 1.00002 8.5 1.00002C8.018 0.998875 7.47194 1.05425 7.00262 1.16502C5.8061 1.52499 5.20561 1.77882 4.38444 2.41627C2.95885 3.51393 1.84811 4.90631 1 6.50001C1 6.50001 3.72727 12 8.5 12Z" stroke="#264653" stroke-width="1.42" stroke-linecap="round" stroke-linejoin="round"/>
<path d="M9.94772 8.05553C9.75318 8.26431 9.57252 8.37782 9.31186 8.49396C9.05119 8.61011 8.7698 8.67256 8.48448 8.6776C8.19915 8.68263 7.91574 8.63014 7.65114 8.52327C7.38654 8.41639 7.14618 8.25731 6.94439 8.05553C6.7426 7.85374 6.58353 7.61338 6.47665 7.34878C6.36977 7.08418 6.31729 6.80076 6.32232 6.51544C6.32736 6.23011 6.38981 5.94873 6.50595 5.68806C6.6221 5.4274 6.94439 5.0522 6.94439 5.0522" stroke="#264653" stroke-width="1.42" stroke-linecap="round" stroke-linejoin="round"/>
<path d="M6.94439 5.0522C7.13893 4.84342 7.37353 4.67596 7.6342 4.55982C7.89486 4.44367 8.17625 4.38122 8.46158 4.37619C8.7469 4.37115 9.03032 4.42364 9.29492 4.53051C9.55952 4.63739 9.79988 4.79647 10.0017 4.99825C10.2035 5.20004 10.3625 5.4404 10.4694 5.705C10.5763 5.9696 10.6288 6.25302 10.6237 6.53834C10.6187 6.82367 10.5562 7.10506 10.4401 7.36572C10.324 7.62638 9.94772 8.05553 9.94772 8.05553" stroke="#264653" stroke-width="1.42" stroke-linecap="round" stroke-linejoin="round"/>
</svg>
