<svg xmlns="http://www.w3.org/2000/svg" width="17" height="17" fill="none">
  <defs/>
  <g stroke="#264653" stroke-linecap="round" stroke-linejoin="round" stroke-width="1.42">
    <path d="M8.5 10.625c1.1736 0 2.125-.9514 2.125-2.125 0-1.17361-.9514-2.125-2.125-2.125-1.17361 0-2.125.95139-2.125 2.125 0 1.1736.95139 2.125 2.125 2.125z"/>
    <path d="M13.7418 10.625c-.0943.2136-.1224.4506-.0807.6804.0416.2298.1512.4418.3145.6087l.0425.0425c.1317.1316.2362.2879.3075.4598.0713.172.108.3564.108.5425 0 .1862-.0367.3706-.108.5425-.0713.172-.1758.3283-.3075.4598-.1316.1317-.2878.2362-.4598.3075s-.3563.108-.5425.108c-.1862 0-.3705-.0367-.5425-.108s-.3282-.1758-.4598-.3075l-.0425-.0425c-.1669-.1633-.379-.2728-.6088-.3145-.2297-.0416-.4667-.0135-.6804.0808-.2095.0898-.3881.2389-.514.4289s-.1934.4127-.1943.6407v.1204c0 .3757-.14926.736-.41494 1.0017-.26567.2657-.62601.4149-1.00173.4149-.37572 0-.73606-.1492-1.00174-.4149-.26567-.2657-.41493-.626-.41493-1.0017v-.0638c-.00548-.2344-.08137-.4618-.2178-.6526-.13643-.1907-.32709-.336-.5472-.417-.21364-.0942-.45063-.1224-.68041-.0807-.22978.0417-.44181.1512-.60875.3145l-.0425.0425c-.13157.1317-.28782.2362-.4598.3075-.17198.0713-.35632.108-.5425.108-.18617 0-.37051-.0367-.54249-.108-.17199-.0713-.32823-.1758-.4598-.3075-.13171-.1316-.23621-.2878-.3075-.4598-.07129-.172-.10799-.3563-.10799-.5425 0-.1862.0367-.3705.10799-.5425.07129-.172.17579-.3282.3075-.4598l.0425-.0425c.1633-.1669.27284-.379.31451-.6087.04166-.2298.01353-.4668-.08076-.6805-.08979-.2095-.23888-.3881-.42892-.514-.19004-.1258-.41273-.19338-.64066-.19429h-.12042c-.37572 0-.73606-.14925-1.00173-.41493C.857752 9.2927.708496 8.93237.708496 8.55665c0-.37573.149256-.73606.414934-1.00174.26567-.26567.62601-.41493 1.00173-.41493h.06375c.23446-.00548.46184-.08137.65259-.21781.19075-.13643.33604-.32709.417-.54719.09429-.21365.12241-.45064.08075-.68042-.04166-.22978-.15121-.44181-.3145-.60875l-.0425-.0425c-.13172-.13157-.23621-.28781-.30751-.45979-.07129-.17198-.10798-.35633-.10798-.5425s.03669-.37052.10798-.5425c.0713-.17198.17579-.32822.30751-.45979.13157-.13172.28781-.23621.45979-.3075.17198-.07129.35633-.10799.5425-.10799s.37052.0367.5425.10799c.17198.07129.32822.17578.45979.3075l.0425.0425c.16694.1633.37897.27284.60875.3145.22978.04167.46677.01354.68042-.08075h.05666c.20951-.08979.38818-.23888.51403-.42892.12586-.19004.1934-.41273.19431-.64066v-.12042c0-.37572.14925-.73606.41493-1.00173.26567-.265681.62601-.414937 1.00173-.414937.37573 0 .73606.149256 1.00174.414937.26567.26567.41493.62601.41493 1.00173v.06375c.00091.22793.06845.45062.19427.64066.1259.19004.3046.33913.5141.42892.2136.09429.4506.12242.6804.08076.2298-.04167.4418-.15121.6087-.31451l.0425-.0425c.1316-.13171.2878-.23621.4598-.3075.172-.07129.3563-.10799.5425-.10799.1862 0 .3705.0367.5425.10799.172.07129.3282.17579.4598.3075.1317.13157.2362.28782.3075.4598.0713.17198.108.35632.108.54249 0 .18618-.0367.37052-.108.5425-.0713.17198-.1758.32823-.3075.4598l-.0425.0425c-.1633.16694-.2728.37897-.3145.60875-.0417.22978-.0135.46677.0808.68041v.05667c.0898.2095.2388.38818.4289.51403.19.12586.4127.19339.6406.1943h.1205c.3757 0 .736.14926 1.0017.41494.2657.26567.4149.62601.4149 1.00173 0 .37572-.1492.73606-.4149 1.00173-.2657.26568-.626.41494-1.0017.41494h-.0638c-.2279.00091-.4506.06844-.6407.19425-.19.1259-.3391.3046-.4289.5141v0z"/>
  </g>
</svg>