<svg xmlns="http://www.w3.org/2000/svg" width="17" height="17" fill="none">
  <defs/>
  <g stroke="#264653" stroke-linecap="round" stroke-linejoin="round" stroke-width="1.42">
    <path d="M10.0018 10.0017c-.19451.2087-.42911.3762-.68978.4923-.26066.1162-.54205.1786-.82738.1837-.28532.005-.56874-.0475-.83334-.1544-.2646-.1068-.50496-.2659-.70675-.4677-.20178-.20178-.36086-.44214-.46774-.70674-.10687-.2646-.15936-.54802-.15432-.83334.00503-.28533.06748-.56672.18363-.82738.11614-.26067.2836-.49527.49238-.68981m5.7092 5.70917c-1.2109.923-2.6853 1.4343-4.20754 1.4592C3.54183 14.1667.708496 8.5.708496 8.5 1.58958 6.85801 2.81163 5.42343 4.29266 4.2925l8.41504 8.415zM7.01266 3.00333c.48757-.11413.98676-.17118 1.4875-.17C13.4585 2.83333 16.2918 8.5 16.2918 8.5c-.4299.80439-.9427 1.5617-1.53 2.2596L7.01266 3.00333zM.708496.708313L16.2918 16.2916"/>
  </g>
</svg>