<svg xmlns="http://www.w3.org/2000/svg" width="17" height="17" fill="none">
  <defs/>
  <path stroke="#FF0000" stroke-linecap="round" stroke-linejoin="round" stroke-width="1.41667" d="M2.125 4.25h12.75M5.6665 4.25002V2.83335c0-.37572.14926-.73605.41494-1.00173.26567-.26568.62601-.41493 1.00173-.41493H9.9165c.3757 0 .7361.14925 1.0017.41493.2657.26568.415.62601.415 1.00173v1.41667m2.125 0v9.91668c0 .3757-.1493.736-.415 1.0017-.2656.2657-.626.415-1.0017.415H4.95817c-.37572 0-.73606-.1493-1.00173-.415-.26568-.2657-.41494-.626-.41494-1.0017V4.25002h9.9167zM7.0835 7.79169v4.25001M9.9165 7.79169v4.25001"/>
</svg>