<svg xmlns="http://www.w3.org/2000/svg" width="415" height="297" fill="none" xmlns:xlink="http://www.w3.org/1999/xlink">
  <defs>
    <path id="reuse-0" fill="#fff" d="M381.233 41.7729H47.1351c-2.4984 0-4.5238 2.0256-4.5238 4.5243V228.86c0 2.499 2.0254 4.524 4.5238 4.524H381.233c2.499 0 4.524-2.025 4.524-4.524V46.2972c0-2.4987-2.025-4.5243-4.524-4.5243z"/>
  </defs>
  <g clip-path="url(#clip0)">
    <path fill="#264653" d="M408.343 199.671c-9.623 19.854-29.163 33.13-49.413 41.885-27.262 11.791-57.284 16.468-86.893 14.49-5.189-.346-10.362-.897-15.52-1.656-17.912-2.613-35.376-7.699-51.891-15.112-4.766-2.147-9.436-4.491-14.009-7.031-7.639-4.234-14.958-9.021-21.898-14.323-1.746-1.333-3.468-2.7-5.165-4.1-1.177-.971-2.343-1.964-3.528-2.927-2.499-2.032-5.07-3.963-7.939-5.408-.866-.437-1.753-.828-2.658-1.174-9.084-3.456-19.559-2.152-29.015.543-7.194 2.051-14.206 4.858-21.3914 6.861-3.1963.918-6.4531 1.611-9.7465 2.072-7.3529.931-14.8199.275-21.898-1.923l-.6048-.189c-1.0142-.319-2.0198-.668-3.0171-1.047l-.6048-.231c-.9659-.372-1.9112-.772-2.836-1.199l-.6048-.276c-.9659-.449-1.9112-.923-2.836-1.423-.3332-.174-.6628-.363-.9887-.54-5.2617-2.939-10.0444-6.663-14.1834-11.045-.1195-.119-.2318-.242-.3622-.362-.5759-.623-1.1409-1.257-1.6878-1.905-.2028-.239-.4056-.478-.6048-.725-.6496-.792-1.2762-1.602-1.8798-2.43-.0905-.12-.1775-.243-.2644-.363-2.4732-3.421-4.5236-7.13-6.1065-11.044-.0507-.12-.0978-.243-.1413-.362-.4829-1.244-.9235-2.508-1.322-3.793-.1629-.536-.3187-1.087-.4563-1.623-.0471-.159-.0906-.322-.1304-.482-1.9993-7.871-2.2275-16.054-2.2275-24.19v-2.843c.058-13.16.2608-26.545 2.2021-39.524 0-.09.0254-.181.0399-.268.6497-4.369 1.5335-8.7003 2.6476-12.9748 1.1659-4.4852 2.656-8.8798 4.4585-13.1492 4.4658-10.5048 10.9599-20.0642 18.1711-28.9244C72.2025 28.66 96.0237 9.94334 123.905 2.93772c30.044-7.54535 63.434-.31514 87.668 18.98108 7.389 5.8827 14.028 12.8485 22.325 17.3583 7.244 3.9267 15.723 5.5531 23.481 2.4632 6.411-2.5537 10.583-3.8216 17.784-3.434 14.906.8434 29.601 3.9218 43.593 9.132.565.2065 1.13.4202 1.691.6339 36.476 13.9569 67.831 41.686 84.13 77.3188.432.942.851 1.891 1.256 2.847 9.718 22.702 13.231 49.308 2.51 71.433zM43.5717 269.137c17.6589 0 31.9741-2.3 31.9741-5.137 0-2.836-14.3152-5.136-31.9741-5.136-17.6588 0-31.974 2.3-31.974 5.136 0 2.837 14.3152 5.137 31.974 5.137zM330.41 297c31.311 0 56.694-2.465 56.694-5.506 0-3.041-25.383-5.506-56.694-5.506-31.311 0-56.693 2.465-56.693 5.506 0 3.041 25.382 5.506 56.693 5.506z" opacity=".1"/>
    <path fill="url(#paint0_linear)" d="M381.741 39.0308H46.5887c-2.4984 0-4.5238 2.0256-4.5238 4.5243V229.508c0 2.499 2.0254 4.525 4.5238 4.525H381.741c2.498 0 4.524-2.026 4.524-4.525V43.5551c0-2.4987-2.026-4.5243-4.524-4.5243z"/>
    <use xlink:href="#reuse-0"/>
    <use xlink:href="#reuse-0"/>
    <use opacity=".04" xlink:href="#reuse-0"/>
    <path fill="url(#paint1_linear)" d="M384.015 39.5742H44.3535c-.4621 0-.9052.1835-1.2319.5103-.3267.3267-.5103.7699-.5103 1.232v7.3642H385.742v-7.3642c0-.4596-.181-.9006-.505-1.2269-.323-.3264-.763-.5116-1.222-.5154z"/>
    <path fill="#fff" d="M49.4641 46.482c1.3002 0 2.3542-1.0542 2.3542-2.3545 0-1.3004-1.054-2.3546-2.3542-2.3546s-2.3542 1.0542-2.3542 2.3546c0 1.3003 1.054 2.3545 2.3542 2.3545zM55.8025 46.482c1.3002 0 2.3542-1.0542 2.3542-2.3545 0-1.3004-1.054-2.3546-2.3542-2.3546s-2.3543 1.0542-2.3543 2.3546c0 1.3003 1.0541 2.3545 2.3543 2.3545zM62.1409 46.482c1.3002 0 2.3542-1.0542 2.3542-2.3545 0-1.3004-1.054-2.3546-2.3542-2.3546-1.3003 0-2.3543 1.0542-2.3543 2.3546 0 1.3003 1.054 2.3545 2.3543 2.3545z"/>
    <path fill="#264653" d="M162.96 65.8072H70.8735v7.8171H162.96v-7.8171z" opacity=".2"/>
    <path fill="#264653" d="M357.496 97.1514H70.8735V217.399H357.496V97.1514z" opacity=".1"/>
    <path fill="url(#paint2_linear)" d="M136.908 125.696c-5.516 0-10.908 1.635-15.494 4.7-4.587 3.065-8.161 7.421-10.272 12.518-2.111 5.096-2.663 10.705-1.587 16.115 1.076 5.411 3.732 10.38 7.632 14.281 3.901 3.901 8.87 6.558 14.28 7.634 5.41 1.076 11.017.524 16.113-1.587 5.096-2.112 9.452-5.687 12.516-10.273 3.065-4.587 4.7-9.98 4.7-15.496 0-3.663-.721-7.29-2.123-10.674-1.401-3.384-3.455-6.459-6.045-9.049s-5.664-4.645-9.048-6.046c-3.383-1.402-7.01-2.123-10.672-2.123zm5.001 28.562v13.207h-9.858v-13.207c-1.365-1.033-2.37-2.468-2.875-4.104-.505-1.635-.483-3.387.062-5.009.544-1.623 1.585-3.033 2.974-4.032 1.389-.999 3.057-1.537 4.768-1.537 1.711 0 3.379.538 4.768 1.537 1.389.999 2.43 2.409 2.975 4.032.544 1.622.566 3.374.061 5.009-.505 1.636-1.51 3.071-2.875 4.104z"/>
    <path fill="#000" stroke="#264653" d="M141.909 167.965h.5v-13.463c1.348-1.083 2.342-2.545 2.853-4.2.535-1.735.513-3.595-.065-5.317-.578-1.721-1.683-3.218-3.157-4.278-1.474-1.06-3.244-1.631-5.06-1.631-1.816 0-3.586.571-5.06 1.631-1.474 1.06-2.578 2.557-3.156 4.278-.578 1.722-.601 3.582-.066 5.317.511 1.655 1.506 3.117 2.853 4.2v13.463h10.358zm-20.218-37.153c4.504-3.01 9.8-4.616 15.217-4.616 3.596 0 7.158.708 10.481 2.085 3.323 1.376 6.342 3.394 8.885 5.937 2.544 2.544 4.561 5.564 5.937 8.887 1.377 3.323 2.085 6.885 2.085 10.483 0 5.417-1.606 10.713-4.616 15.218-3.009 4.504-7.287 8.015-12.291 10.089-5.005 2.073-10.512 2.615-15.825 1.558-5.312-1.057-10.193-3.665-14.023-7.496-3.83-3.831-6.439-8.712-7.496-14.025-1.056-5.314-.514-10.822 1.559-15.827 2.073-5.005 5.583-9.283 10.087-12.293z" opacity=".05"/>
    <path fill="url(#paint3_linear)" d="M136.908 117.726c-7.092 0-14.025 2.104-19.921 6.044-5.897 3.941-10.493 9.541-13.207 16.094-2.714 6.553-3.424 13.763-2.04 20.72 1.383 6.956 4.798 13.346 9.813 18.361 5.015 5.016 11.404 8.431 18.359 9.815 6.956 1.384 14.165.673 20.717-2.041s12.152-7.311 16.092-13.208c3.94-5.897 6.043-12.831 6.043-19.923 0-9.511-3.777-18.633-10.502-25.358-6.724-6.725-15.845-10.504-25.354-10.504zm6.428 36.724v16.978H130.66V154.45c-1.755-1.328-3.048-3.174-3.698-5.277-.649-2.103-.622-4.357.079-6.443.7-2.087 2.038-3.9 3.825-5.185 1.786-1.285 3.931-1.977 6.132-1.977 2.201 0 4.346.692 6.132 1.977 1.787 1.285 3.125 3.098 3.825 5.185.701 2.086.728 4.34.079 6.443-.649 2.103-1.943 3.949-3.698 5.277z"/>
    <path fill="#fff" d="M303.515 148.882H187.614v12.316h115.901v-12.316z"/>
    <path fill="#264653" d="M199.023 154.855h-2.097l1.865-1.861c.034-.035.052-.081.052-.129s-.018-.094-.052-.129c-.016-.017-.036-.03-.059-.039-.022-.009-.045-.014-.069-.014-.024 0-.048.005-.07.014-.022.009-.042.022-.059.039l-1.865 1.866v-2.101c0-.048-.019-.094-.053-.128s-.08-.053-.128-.053c-.048.001-.093.02-.127.054s-.053.079-.054.127v2.101l-1.862-1.877c-.017-.016-.037-.03-.059-.039-.022-.009-.046-.014-.069-.014-.024 0-.048.005-.07.014-.022.009-.042.023-.059.039-.033.035-.052.081-.052.129s.019.094.052.129l1.865 1.862h-2.1c-.048 0-.094.02-.127.054-.034.033-.054.079-.055.127 0 .048.02.094.054.128.033.034.08.053.128.053h2.1l-1.865 1.865c-.033.035-.052.081-.052.129s.019.094.052.128c.035.033.081.051.129.051.047 0 .093-.018.128-.051l1.862-1.865v2.097c0 .048.019.094.053.128s.08.053.128.053.094-.019.128-.053.053-.08.053-.128v-2.097l1.865 1.865c.035.033.081.051.129.051s.094-.018.128-.051c.034-.034.052-.08.052-.128s-.018-.094-.052-.129l-1.865-1.865h2.097c.048 0 .094-.019.128-.053s.053-.08.053-.128c-.002-.046-.023-.09-.056-.121-.034-.032-.079-.05-.125-.05zM206.629 154.855h-2.097l1.865-1.861c.033-.035.052-.081.052-.129s-.019-.094-.052-.129c-.017-.017-.037-.03-.059-.039-.022-.009-.046-.014-.07-.014-.024 0-.047.005-.069.014-.022.009-.042.022-.059.039l-1.866 1.866v-2.101c0-.048-.019-.094-.053-.128s-.08-.053-.128-.053c-.047.001-.093.02-.127.054-.033.034-.053.079-.054.127v2.101l-1.861-1.877c-.017-.016-.037-.03-.059-.039-.022-.009-.046-.014-.07-.014-.024 0-.048.005-.07.014-.022.009-.042.023-.059.039-.033.035-.052.081-.052.129s.019.094.052.129l1.866 1.862h-2.101c-.048 0-.093.02-.127.054-.034.033-.053.079-.054.127 0 .048.019.094.053.128s.08.053.128.053h2.101l-1.866 1.865c-.033.035-.052.081-.052.129s.019.094.052.128c.035.033.081.051.129.051s.094-.018.129-.051l1.861-1.865v2.097c0 .048.019.094.053.128s.08.053.128.053.094-.019.128-.053.053-.08.053-.128v-2.097l1.866 1.865c.035.033.081.051.128.051.048 0 .094-.018.129-.051.033-.034.052-.08.052-.128s-.019-.094-.052-.129l-1.865-1.865h2.097c.048 0 .094-.019.128-.053s.053-.08.053-.128c-.003-.046-.023-.09-.057-.121-.034-.032-.078-.05-.124-.05zM214.235 154.855h-2.097l1.865-1.861c.034-.035.052-.081.052-.129s-.018-.094-.052-.129c-.016-.017-.036-.03-.059-.039-.022-.009-.045-.014-.069-.014-.024 0-.048.005-.07.014-.022.009-.042.022-.059.039l-1.865 1.866v-2.101c0-.048-.019-.094-.053-.128s-.08-.053-.128-.053c-.048.001-.093.02-.127.054s-.053.079-.054.127v2.101l-1.862-1.877c-.017-.016-.037-.03-.059-.039-.022-.009-.046-.014-.07-.014-.023 0-.047.005-.069.014-.022.009-.042.023-.059.039-.034.035-.052.081-.052.129s.018.094.052.129l1.865 1.862h-2.101c-.047 0-.093.02-.127.054-.033.033-.053.079-.054.127 0 .048.019.094.053.128s.08.053.128.053h2.101l-1.865 1.865c-.034.035-.052.081-.052.129s.018.094.052.128c.035.033.081.051.128.051.048 0 .094-.018.129-.051l1.862-1.865v2.097c0 .048.019.094.053.128s.08.053.128.053.094-.019.128-.053.053-.08.053-.128v-2.097l1.865 1.865c.035.033.081.051.129.051s.093-.018.128-.051c.034-.034.052-.08.052-.128s-.018-.094-.052-.129l-1.865-1.865h2.097c.048 0 .094-.019.128-.053s.053-.08.053-.128c-.002-.046-.023-.09-.056-.121-.034-.032-.079-.05-.125-.05zM221.842 154.855h-2.098l1.866-1.861c.033-.035.052-.081.052-.129s-.019-.094-.052-.129c-.017-.017-.037-.03-.059-.039-.022-.009-.046-.014-.07-.014-.024 0-.047.005-.069.014-.023.009-.043.022-.059.039l-1.866 1.866v-2.101c0-.048-.019-.094-.053-.128s-.08-.053-.128-.053c-.047.001-.093.02-.127.054s-.053.079-.054.127v2.101l-1.861-1.877c-.017-.016-.037-.03-.059-.039-.022-.009-.046-.014-.07-.014-.024 0-.048.005-.07.014-.022.009-.042.023-.059.039-.033.035-.052.081-.052.129s.019.094.052.129l1.866 1.862h-2.101c-.048 0-.093.02-.127.054-.034.033-.053.079-.054.127 0 .048.019.094.053.128s.08.053.128.053h2.101l-1.866 1.865c-.033.035-.052.081-.052.129s.019.094.052.128c.035.033.081.051.129.051s.094-.018.129-.051l1.861-1.865v2.097c0 .048.019.094.053.128s.08.053.128.053.094-.019.128-.053.053-.08.053-.128v-2.097l1.866 1.865c.034.033.08.051.128.051s.094-.018.129-.051c.033-.034.052-.08.052-.128s-.019-.094-.052-.129l-1.866-1.865h2.098c.048 0 .094-.019.128-.053s.053-.08.053-.128c-.003-.046-.023-.09-.057-.121-.034-.032-.078-.05-.124-.05zM229.447 154.855h-2.097l1.865-1.861c.034-.035.052-.081.052-.129s-.018-.094-.052-.129c-.017-.017-.037-.03-.059-.039-.022-.009-.045-.014-.069-.014-.024 0-.048.005-.07.014-.022.009-.042.022-.059.039l-1.865 1.866v-2.101c0-.048-.019-.094-.053-.128s-.08-.053-.128-.053c-.048.001-.094.02-.127.054-.034.034-.053.079-.054.127v2.101l-1.862-1.877c-.017-.016-.037-.03-.059-.039-.022-.009-.046-.014-.07-.014-.024 0-.047.005-.069.014-.022.009-.042.023-.059.039-.034.035-.052.081-.052.129s.018.094.052.129l1.865 1.862h-2.101c-.047 0-.093.02-.127.054-.033.033-.053.079-.054.127 0 .048.019.094.053.128s.08.053.128.053h2.101l-1.865 1.865c-.034.035-.052.081-.052.129s.018.094.052.128c.035.033.081.051.128.051.048 0 .094-.018.129-.051l1.862-1.865v2.097c0 .048.019.094.053.128s.08.053.128.053.094-.019.128-.053.053-.08.053-.128v-2.097l1.865 1.865c.035.033.081.051.129.051.047 0 .093-.018.128-.051.034-.034.052-.08.052-.128s-.018-.094-.052-.129l-1.865-1.865h2.097c.048 0 .094-.019.128-.053s.053-.08.053-.128c-.003-.046-.023-.09-.057-.121-.033-.032-.078-.05-.124-.05zM237.054 154.855h-2.098l1.866-1.861c.033-.035.052-.081.052-.129s-.019-.094-.052-.129c-.017-.017-.037-.03-.059-.039-.022-.009-.046-.014-.07-.014-.024 0-.047.005-.069.014-.023.009-.043.022-.059.039l-1.866 1.866v-2.101c0-.048-.019-.094-.053-.128s-.08-.053-.128-.053c-.048.001-.093.02-.127.054s-.053.079-.054.127v2.101l-1.862-1.877c-.016-.016-.036-.03-.059-.039-.022-.009-.045-.014-.069-.014-.024 0-.048.005-.07.014-.022.009-.042.023-.059.039-.033.035-.052.081-.052.129s.019.094.052.129l1.866 1.862h-2.101c-.048 0-.093.02-.127.054-.034.033-.053.079-.054.127 0 .048.019.094.053.128s.08.053.128.053h2.101l-1.866 1.865c-.033.035-.052.081-.052.129s.019.094.052.128c.035.033.081.051.129.051s.094-.018.128-.051l1.862-1.865v2.097c0 .048.019.094.053.128s.08.053.128.053.094-.019.128-.053.053-.08.053-.128v-2.097l1.866 1.865c.034.033.08.051.128.051s.094-.018.129-.051c.033-.034.052-.08.052-.128s-.019-.094-.052-.129l-1.866-1.865h2.098c.048 0 .094-.019.128-.053s.053-.08.053-.128c-.003-.046-.023-.09-.057-.121-.034-.032-.078-.05-.124-.05zM244.659 154.855h-2.097l1.865-1.861c.034-.035.052-.081.052-.129s-.018-.094-.052-.129c-.017-.017-.037-.03-.059-.039-.022-.009-.046-.014-.069-.014-.024 0-.048.005-.07.014-.022.009-.042.022-.059.039l-1.865 1.866v-2.101c0-.048-.019-.094-.053-.128s-.08-.053-.128-.053c-.048.001-.094.02-.127.054-.034.034-.054.079-.054.127v2.101l-1.862-1.877c-.017-.016-.037-.03-.059-.039-.022-.009-.046-.014-.07-.014-.024 0-.047.005-.069.014-.022.009-.042.023-.059.039-.034.035-.052.081-.052.129s.018.094.052.129l1.865 1.862h-2.101c-.047 0-.093.02-.127.054-.033.033-.053.079-.054.127 0 .048.019.094.053.128s.08.053.128.053h2.101l-1.865 1.865c-.034.035-.052.081-.052.129s.018.094.052.128c.035.033.081.051.128.051.048 0 .094-.018.129-.051l1.862-1.865v2.097c0 .048.019.094.053.128s.08.053.128.053.094-.019.128-.053.053-.08.053-.128v-2.097l1.865 1.865c.035.033.081.051.129.051.047 0 .093-.018.128-.051.034-.034.052-.08.052-.128s-.018-.094-.052-.129l-1.865-1.865h2.097c.048 0 .094-.019.128-.053s.053-.08.053-.128c-.003-.046-.023-.09-.057-.121-.033-.032-.078-.05-.124-.05zM252.265 154.855h-2.097l1.866-1.861c.033-.035.052-.081.052-.129s-.019-.094-.052-.129c-.017-.017-.037-.03-.059-.039-.022-.009-.046-.014-.07-.014-.024 0-.048.005-.07.014-.022.009-.042.022-.059.039l-1.865 1.866v-2.101c0-.048-.019-.094-.053-.128s-.08-.053-.128-.053c-.048.001-.093.02-.127.054s-.053.079-.054.127v2.101l-1.862-1.877c-.016-.016-.037-.03-.059-.039-.022-.009-.045-.014-.069-.014-.024 0-.048.005-.07.014-.022.009-.042.023-.059.039-.033.035-.052.081-.052.129s.019.094.052.129l1.865 1.862h-2.1c-.048 0-.094.02-.127.054-.034.033-.053.079-.054.127 0 .048.019.094.053.128s.08.053.128.053h2.1l-1.865 1.865c-.033.035-.052.081-.052.129s.019.094.052.128c.035.033.081.051.129.051.047 0 .093-.018.128-.051l1.862-1.865v2.097c0 .048.019.094.053.128s.08.053.128.053.094-.019.128-.053.053-.08.053-.128v-2.097l1.865 1.865c.035.033.081.051.129.051s.094-.018.129-.051c.033-.034.052-.08.052-.128s-.019-.094-.052-.129l-1.866-1.865h2.097c.048 0 .094-.019.128-.053s.054-.08.054-.128c-.003-.046-.024-.09-.057-.121-.034-.032-.078-.05-.125-.05zM259.871 154.855h-2.097l1.865-1.861c.033-.035.052-.081.052-.129s-.019-.094-.052-.129c-.017-.017-.037-.03-.059-.039-.022-.009-.046-.014-.07-.014-.023 0-.047.005-.069.014-.022.009-.042.022-.059.039l-1.865 1.866v-2.101c0-.048-.019-.094-.053-.128s-.08-.053-.128-.053c-.048.001-.094.02-.127.054-.034.034-.054.079-.055.127v2.101l-1.861-1.877c-.017-.016-.037-.03-.059-.039-.022-.009-.046-.014-.07-.014-.024 0-.047.005-.069.014-.022.009-.043.023-.059.039-.034.035-.052.081-.052.129s.018.094.052.129l1.865 1.862H254.8c-.048 0-.093.02-.127.054-.034.033-.053.079-.054.127 0 .048.019.094.053.128s.08.053.128.053h2.101l-1.865 1.865c-.034.035-.052.081-.052.129s.018.094.052.128c.035.033.08.051.128.051s.094-.018.129-.051l1.861-1.865v2.097c0 .048.02.094.053.128.034.034.081.053.129.053s.094-.019.128-.053.053-.08.053-.128v-2.097l1.865 1.865c.035.033.081.051.128.051.048 0 .094-.018.129-.051.033-.034.052-.08.052-.128s-.019-.094-.052-.129l-1.865-1.865h2.097c.048 0 .094-.019.128-.053s.053-.08.053-.128c-.003-.046-.023-.09-.057-.121-.033-.032-.078-.05-.124-.05zM267.477 154.855h-2.097l1.865-1.861c.034-.035.053-.081.053-.129s-.019-.094-.053-.129c-.016-.017-.036-.03-.058-.039-.023-.009-.046-.014-.07-.014-.024 0-.048.005-.07.014-.022.009-.042.022-.059.039l-1.865 1.866v-2.101c0-.048-.019-.094-.053-.128s-.08-.053-.128-.053c-.048.001-.093.02-.127.054s-.053.079-.054.127v2.101l-1.862-1.877c-.017-.016-.037-.03-.059-.039-.022-.009-.045-.014-.069-.014-.024 0-.048.005-.07.014-.022.009-.042.023-.059.039-.033.035-.052.081-.052.129s.019.094.052.129l1.865 1.862h-2.1c-.048 0-.094.02-.127.054-.034.033-.053.079-.054.127 0 .048.019.094.053.128s.08.053.128.053h2.1l-1.865 1.865c-.033.035-.052.081-.052.129s.019.094.052.128c.035.033.081.051.129.051.047 0 .093-.018.128-.051l1.862-1.865v2.097c0 .048.019.094.053.128s.08.053.128.053.094-.019.128-.053.053-.08.053-.128v-2.097l1.865 1.865c.035.033.081.051.129.051s.094-.018.128-.051c.034-.034.053-.08.053-.128s-.019-.094-.053-.129l-1.865-1.865h2.097c.048 0 .094-.019.128-.053s.053-.08.053-.128c-.002-.046-.023-.09-.056-.121-.034-.032-.079-.05-.125-.05zM275.083 154.855h-2.097l1.865-1.861c.033-.035.052-.081.052-.129s-.019-.094-.052-.129c-.017-.017-.037-.03-.059-.039-.022-.009-.046-.014-.07-.014-.024 0-.047.005-.069.014-.022.009-.042.022-.059.039l-1.865 1.866v-2.101c0-.048-.02-.094-.054-.128-.033-.034-.08-.053-.128-.053-.047.001-.093.02-.127.054-.033.034-.053.079-.054.127v2.101l-1.861-1.877c-.017-.016-.037-.03-.059-.039-.022-.009-.046-.014-.07-.014-.024 0-.047.005-.07.014-.022.009-.042.023-.058.039-.034.035-.053.081-.053.129s.019.094.053.129l1.865 1.862h-2.101c-.048 0-.093.02-.127.054-.034.033-.053.079-.054.127 0 .048.019.094.053.128s.08.053.128.053h2.101l-1.865 1.865c-.034.035-.053.081-.053.129s.019.094.053.128c.034.033.08.051.128.051s.094-.018.129-.051l1.861-1.865v2.097c0 .048.019.094.053.128s.08.053.128.053.095-.019.128-.053c.034-.034.054-.08.054-.128v-2.097l1.865 1.865c.035.033.081.051.128.051.048 0 .094-.018.129-.051.033-.034.052-.08.052-.128s-.019-.094-.052-.129l-1.865-1.865h2.097c.048 0 .094-.019.128-.053s.053-.08.053-.128c-.003-.046-.023-.09-.057-.121-.034-.032-.078-.05-.124-.05z"/>
    <path fill="url(#paint4_linear)" d="M367.369 293.153c-.191-.96-.518-1.888-.97-2.757l-4.347-6.491h.026s-.685-3.26 0-4.861c.684-1.601-2.442-5.538-2.442-5.538s-.38-.989.613-2.207c.992-1.217-.613-4.781-.613-4.781s-.76-7.444-.836-8.581c-.076-1.138-.688-7.441-.688-7.441l-1.449-13.363-2.579-35.415-.047-.663c.319-.156.489-.254.489-.254l-.514-19.582.445-.402c3.89-3.521 12.862-11.671 12.771-11.849-.091-.177-1.087-13.609-1.202-16.971-.1-2.388-.623-4.741-1.543-6.947-.225-.446-.873-3.384-1.141-4.626-.073-.34-.12-.554-.12-.554s-2.629-5.014-2.401-7.292c.228-2.278.684-3.985-4.922-4.782 0 0-4.709-.702-7.512-2.618-1.658-1.148-3.47-2.056-5.382-2.695 0 0-1.572-2.898-2.666-1.917-.463-1.034-.809-2.116-1.032-3.227l-.033-.203c2.076-1.448 3.571-3.587 4.216-6.035.036-.138.065-.279.098-.416.109.036.222.057.337.061.952 0 1.539-1.061 2.43-1.398.362-.141.808-.163 1.087-.449.091-.111.16-.238.201-.376.041-.138.054-.282.038-.425.009-.099.009-.198 0-.297.001-.035.001-.07 0-.105v.036c-.243-1.318-1.264-2.488-1.152-3.829.108-1.26 1.217-2.369 1.126-3.597-.001-.097-.009-.193-.025-.289v.043c-.135-.4793-.384-.9191-.725-1.2821-.389-.5313-.901-.9611-1.492-1.2534-.503-.2209-1.086-.2716-1.557-.5361-1.384-.7534-1.38-2.7167-2.202-4.057-.353-.5595-.852-1.0108-1.445-1.3042-.592-.2934-1.254-.4175-1.913-.3585-1.028.1015-1.959.6484-2.977.8259-1.391.2463-2.807-.2065-4.125-.7244-1.319-.518-2.655-1.0868-4.071-1.0868s-2.949.7245-3.376 2.0612c-.228.7244-.116 1.5032-.29 2.2386-.311 1.2968-1.448 2.2241-2.626 2.8689-.724.4021-1.586.8621-1.81 1.6228v-.058c-.017.0607-.029.1224-.037.1848-.007.0807-.007.1619 0 .2427 0 .5216.276 1.0176.46 1.5146.344.944.337 1.98-.021 2.919-.268.688-.725 1.293-.986 1.978-.123.319-.203.653-.239.992v-.058c-.009.155-.009.31 0 .464-.004.529.12 1.051.363 1.522.166.324.395.612.675.847.279.234.602.411.951.518.724.167 1.177-.543 1.941-.362.137.033.271.075.402.127.025.163.051.326.08.485.462 2.438 1.761 4.638 3.672 6.22 0 .087.029.174.04.264.232 1.444.332 2.906.301 4.369 0 0-1.141-1.67-2.706 1.554 0 0-4.082 2.354-5.49 2.622-1.409.268-6.411 2.011-6.411 2.011-.755.545-1.662.838-2.594.836-1.561 0-2.857 3.416-2.669 5.275.188 1.858-.112 3.227-1.565 3.303-1.452.076-.659 3.021-.648 3.072l-.134.634c-.282 1.297-.898 4.079-1.115 4.513-.921 2.207-1.445 4.559-1.547 6.948-.112 3.361-1.087 16.742-1.199 16.971-.076.148 6.071 5.766 10.391 9.693l.627.565-1.988 18.576c.058.715.27 1.41.623 2.035.353.626.837 1.167 1.419 1.587 0 .217 0 .438-.021.666-.087 2.174-.261 4.804-.609 5.492-.608 1.217-.456 7.744-.456 7.744s-.612 13.287-1.373 14.733c-.761 1.445-.916 4.477-.688 5.071.228.594-.764 16.55-.764 16.55l-.761 7.14s.228 6.832-.46 6.984c-.688.152-1.068 4.861-1.068 4.861s-2.438 3.34-1.373 4.553c1.065 1.214-.156 1.75-.268 2.051-.112.3-2.325 1.449-.724 5.694.014.042.031.083.05.123-1.499 2.083-6.251 8.802-5.961 9.824.213.65.667 1.194 1.267 1.521 1.119.67 3.039.982 6.092 0 5.071-1.633 4.709-2.811 4.709-2.811.026-.55.262-1.07.659-1.451.398-.381.927-.596 1.478-.599 2.097-.152 3.661-2.086 3.661-2.086l-.246-.917-.337-1.268c.04-.362.297-.996 1.449-1.347 1.757-.533 1.297-3.872 1.297-3.872s-.152-3.492.608-3.949c.761-.456.46-6.227.46-6.227s.84-4.176 2.057-6.987 2.673-19.51 2.673-19.51.989-8.201 1.905-10.556c.917-2.354 1.757-8.958 1.757-8.958s5.647-10.936 5.719-13.366c0 0 .724-2.279 1.449.228.724 2.507 2.76 8.505 2.76 8.505l1.981 7.365 2.365 11.008 1.528 9.266s-.231 3.492.363 4.709c.594 1.217 1.448 4.021.992 4.553-.456.533.913 3.039 1.297 3.568.384.529 0 11.769 0 11.769s1.753 9.567 4.27 11.23c.175.115.362.212.558.289-.037 1.036-.073 2.424-.026 3.148-.005.162.022.323.08.475.228.304 2.821 2.354 3.357 2.354.537 0 2.438 1.33 2.518 1.974.079.645 5.574 3.376 6.353 3.456.778.08 4.552.757 5.07-.304.128-.311.165-.651.105-.982zM353.87 156.33l.392.337s.402 3.133.688 4.071c.286.938-.058 2.764-.058 2.764.026.681.162 1.354.402 1.992.34.685-.688 2.174-.688 2.174h-.917l-.286-11.729.467.391zm-27.247-35.021v-.069c-.007.022-.011.047-.011.069h.011zm-14.071 45.152c-.141-.303-.162-.649-.058-.967.081-.172.146-.351.192-.536.112-.476.183-.961.21-1.449v-.018c-.033-.174-.326-1.855-.054-2.746.271-.891.684-4.071.684-4.071l.261-.221.605-.525s0-.196.043-.518c.127 2.753.228 5.795.065 5.948-.304.3-1.412 3.26-1.144 3.376.087.039-.033 1.224-.236 2.818-.227-.342-.418-.708-.568-1.091z"/>
    <path fill="#F8EAC9" d="M341.744 124.203v4.506l-9.243 4.648s-9.178-5.553-6.914-7.763c1.448-1.398 1.17-5.238.778-7.879-.228-1.535-.492-2.662-.492-2.662s16.487-4.709 13.995-1.134c-.833 1.196-.898 2.742-.62 4.275.565 3.039 2.496 6.009 2.496 6.009z"/>
    <path fill="#264653" d="M316.424 168.269l-1.192 14.678s-1.786-1.619-4.096-3.728c-4.285-3.908-10.37-9.497-10.297-9.646.112-.228 1.086-13.544 1.191-16.891.099-2.376.617-4.715 1.529-6.911.217-.435.829-3.203 1.086-4.496.087-.402.141-.663.141-.663l2-.804s8.33 9.295 8.33 9.465c0 .171-.569 7.31-.569 7.31l-.59.515-.257.221s-.398 3.118-.681 4.053c-.282.935.022 2.557.054 2.731-.026.488-.095.973-.206 1.449-.047.183-.112.362-.192.533-.102.317-.081.661.058.963.161.42.37.82.623 1.192l3.068.029zM366.909 169.573c.087.178-8.797 8.288-12.648 11.791l-1.745 1.583-1.181-14.678h3.06s1.022-1.474.681-2.155c-.237-.635-.37-1.304-.394-1.982 0 0 .336-1.811.054-2.749-.283-.938-.681-4.054-.681-4.054l-.388-.333-.46-.402s-.568-7.14-.568-7.31c0-.17 8.33-9.465 8.33-9.465l1.985.793s.044.214.116.555c.268 1.235.909 4.158 1.13 4.604.912 2.196 1.429 4.535 1.528 6.911.095 3.347 1.065 16.663 1.181 16.891z"/>
    <path fill="#3F3D56" d="M366.945 294.16c-.532 1.058-4.27.362-5.041.304-.772-.058-6.219-2.8-6.295-3.441-.076-.641-1.963-1.963-2.492-1.963-.529 0-3.097-2.043-3.325-2.344-.058-.15-.084-.31-.076-.471-.08-1.242.076-4.441.076-4.441l10.956.605 5.324 8.009c.449.864.774 1.787.964 2.742.065.335.033.682-.091 1z"/>
    <path fill="#000" stroke="#264653" d="M350.269 282.331l10.202.564 5.17 7.777c.42.815.725 1.685.904 2.585.045.231.026.469-.054.69-.034.047-.163.152-.542.224-.381.072-.877.084-1.413.06-.529-.024-1.071-.081-1.534-.137-.152-.019-.299-.038-.436-.055-.264-.034-.488-.063-.625-.073h-.001c-.005-.001-.034-.006-.096-.024-.067-.019-.152-.047-.257-.085-.209-.077-.474-.186-.779-.322-.608-.27-1.354-.633-2.08-1.015-.727-.383-1.424-.779-1.939-1.116-.259-.169-.459-.314-.592-.429-.052-.045-.086-.079-.107-.102-.033-.145-.097-.274-.162-.38-.082-.133-.186-.263-.297-.385-.223-.243-.508-.489-.798-.707-.291-.218-.601-.418-.88-.566-.139-.074-.278-.139-.409-.187-.113-.041-.254-.082-.397-.088-.009-.002-.041-.012-.104-.042-.097-.045-.223-.115-.374-.208-.301-.185-.666-.44-1.029-.71-.361-.269-.713-.547-.987-.775-.137-.114-.252-.214-.338-.292-.035-.032-.062-.057-.081-.076-.015-.061-.022-.125-.019-.188l.002-.028-.002-.028c-.038-.593-.02-1.68.009-2.639.014-.475.031-.912.045-1.23v-.013zm5.796 8.511s.002.002.005.007c-.004-.005-.005-.007-.005-.007z" opacity=".1"/>
    <path fill="#000" stroke="#264653" d="M366.563 293.614c-.009.113-.034.225-.073.333-.034.047-.162.152-.542.224-.381.072-.877.084-1.412.06-.53-.024-1.072-.081-1.534-.137-.152-.019-.3-.038-.437-.055-.206-.027-.388-.05-.523-.064.054-.004.107-.01.151-.015.124-.014.282-.035.461-.059.034-.004.069-.009.105-.014.346-.046.772-.103 1.234-.155.871-.097 1.824-.167 2.57-.118zm-4.708.363h.002l.003-.03-.005.03z" opacity=".1"/>
    <path fill="#3F3D56" d="M315.152 287.549s-1.55 1.927-3.622 2.076c-.546.004-1.071.218-1.464.597-.394.38-.627.896-.651 1.442 0 0 .362 1.174-4.647 2.8-3.024.975-4.925.667-6.034 0-.595-.328-1.043-.869-1.257-1.514-.34-1.206 6.346-10.389 6.346-10.389l6.085-.362 4.346 1.963.666 2.489.232.898z"/>
    <path fill="#000" stroke="#264653" d="M303.942 283.25c.057-.079.106-.147.147-.204l5.725-.34 4.018 1.815.604 2.255.001.004.165.637c-.025.027-.053.056-.083.087-.165.17-.406.399-.707.632-.606.469-1.413.921-2.303.989-.668.01-1.309.273-1.79.737-.486.469-.774 1.106-.803 1.78l-.004.087.001.003c-.02.049-.084.172-.283.356-.455.422-1.534 1.095-4.016 1.901-2.944.948-4.681.613-5.622.047l-.008-.005-.008-.004c-.473-.261-.832-.686-1.01-1.194.001-.014.004-.042.014-.088.022-.096.065-.228.135-.398.139-.339.361-.776.646-1.284.57-1.014 1.365-2.262 2.178-3.482.811-1.219 1.633-2.4 2.253-3.278.31-.438.569-.8.75-1.053z" opacity=".1"/>
    <path fill="#000" stroke="#264653" d="M312.795 288.494c.583-.331 1.226-.716 1.795-1.064-.021.023-.045.048-.071.074-.165.17-.406.399-.707.632-.577.447-1.335.878-2.175.977.024-.012.048-.023.072-.035.31-.152.687-.357 1.086-.584zm-5.505 4.366c.187-.067.363-.133.524-.198-.646.371-1.648.823-3.199 1.327-1.467.472-2.634.626-3.553.591 1.133-.237 2.381-.549 3.53-.872 1.012-.285 1.96-.581 2.698-.848z" opacity=".1"/>
    <path fill="#264653" d="M361.806 279.124c-.681 1.586 0 4.836 0 4.836s-10.141.528-12.619-1.134c-2.477-1.663-4.23-11.186-4.23-11.186s.362-11.182 0-11.711c-.362-.529-1.739-3.021-1.286-3.55.453-.529-.362-3.325-.981-4.535-.62-1.21-.363-4.684-.363-4.684l-1.514-9.222-2.339-10.954-1.989-7.332s-2.039-5.97-2.731-8.462c-.691-2.492-1.423-.228-1.423-.228-.072 2.42-5.665 13.301-5.665 13.301s-.833 6.575-1.738 8.915c-.906 2.34-1.891 10.505-1.891 10.505s-1.449 16.623-2.644 19.419c-1.195 2.797-2.017 6.951-2.017 6.951s.304 5.745-.453 6.198c-.757.453-.634 3.93-.634 3.93s.453 3.322-1.286 3.855c-1.738.532-1.448 1.662-1.448 1.662s-9.671 1.587-11.257-2.648c-1.587-4.234.605-5.361.724-5.665.12-.304 1.326-.83.268-2.043-1.057-1.214 1.358-4.532 1.358-4.532s.381-4.683 1.058-4.835c.677-.153.456-6.952.456-6.952l.754-7.103s.985-15.87.757-16.475c-.228-.604-.076-3.622.681-5.071.757-1.449 1.358-14.663 1.358-14.663s-.152-6.495.453-7.705c.362-.684.514-3.318.601-5.466.065-1.641.079-2.999.079-2.999l8.461-3.173 10.866-3.474 9.142 4.383 13.375 2.568.167 2.307 2.553 35.249 1.449 13.298s.605 6.27.681 7.404c.076 1.134.829 8.542.829 8.542s1.587 3.55.605 4.759c-.981 1.21-.605 2.174-.605 2.174s3.119 3.959 2.438 5.546z"/>
    <path fill="#000" stroke="#264653" d="M339.465 113.633h0c-.881 1.264-.98 2.835-.755 4.328-1.761 1.163-3.844 1.748-5.959 1.669-2.155-.08-4.226-.847-5.913-2.185-.107-.696-.219-1.299-.307-1.738-.022-.112-.043-.213-.062-.303.074-.02.156-.043.246-.067.444-.121 1.075-.29 1.826-.482 1.502-.384 3.474-.857 5.365-1.219 1.906-.365 3.679-.606 4.808-.548.278.015.498.047.663.091.161.045.231.091.254.113v.002c-.004.041-.034.15-.166.339z" opacity=".1"/>
    <path fill="#F8EAC9" stroke="#E9C46A" stroke-width=".2" d="M343.629 109.297v0c0 2.08-.616 4.112-1.771 5.841-1.156 1.729-2.797 3.077-4.718 3.872-1.921.796-4.035 1.004-6.074.599-2.039-.406-3.912-1.407-5.382-2.878-1.47-1.47-2.472-3.343-2.877-5.383-.406-2.039-.198-4.153.598-6.074.796-1.921 2.143-3.563 3.872-4.719 1.729-1.1547 3.761-1.7713 5.84-1.7713h.001c1.382-.0067 2.752.2607 4.03.7867 1.278.5256 2.44 1.2996 3.417 2.2776.978.978 1.752 2.139 2.278 3.418.525 1.278.793 2.648.786 4.031z"/>
    <path fill="#000" stroke="#264653" d="M326.262 127.597h.001l4.918.627.017.002.016.001 4.871.3.043.003.043-.005 5.281-.587h0l3.954-.441-3.411 60.753-17.979-3.776-3.68-24.416 3.642-32.755 2.284.294z" opacity=".1"/>
    <path fill="#F7F8F9" d="M345.939 127.387l-3.477 61.924-18.889-3.966-3.741-24.824 3.705-33.322 2.789.355 4.919.626 4.871.301 5.281-.587 4.542-.507z" opacity=".9"/>
    <path fill="#3F3D56" d="M330.411 129.05l6.802.228-1.912 2.677s.134 5.408 1.043 6.958c.909 1.551.641 25.502.641 25.502l-1.811 3.437-3.097-3.854.04-31.623-1.706-3.325z"/>
    <path fill="#F1592A" d="M330.411 129.05l6.802.228-1.912 2.677s.134 5.408 1.043 6.958c.909 1.551.641 25.502.641 25.502l-1.811 3.437-3.097-3.854.04-31.623-1.706-3.325z"/>
    <path fill="#000" stroke="#264653" d="M338.354 132.118l-2.954-3.079 5.602-6.204 2.703 4.067-5.351 5.216z" opacity=".1"/>
    <path fill="#264653" d="M341.062 121.57l-6.345 7.027 3.625 3.778 6.009-5.857-3.289-4.948z"/>
    <path fill="#000" stroke="#264653" d="M328.129 132.106l-2.605-6.51.41-2.28 5.405 5.403-3.21 3.387z" opacity=".1"/>
    <path fill="#264653" d="M332.262 128.257l-6.422-6.423-.605 3.362 2.949 7.367 4.078-4.306z"/>
    <path fill="#000" stroke="#264653" d="M334.243 197.624h0-.001 0l-.36-.701-.481.625-2.379 3.097-.067.087-.024.106c-.063.273-.246.559-.589.849-.344.29-.824.564-1.426.812-1.203.498-2.812.863-4.571 1.092-3.524.458-7.504.348-9.759-.252h0l-.009-.002c-.823-.203-1.601-.554-2.298-1.035.027-.719.044-1.369.055-1.855.004-.218.008-.403.01-.547l8.13-3.049 10.665-3.41 8.962 4.297.058.028.064.013 13.004 2.496.134 1.584c-2.945 1.363-6.087 2.253-9.311 2.637h-.004c-2.878.367-5.307-1.277-7.068-3.121-.873-.914-1.559-1.855-2.027-2.569-.234-.357-.413-.655-.532-.863-.06-.104-.105-.185-.134-.24-.015-.027-.026-.048-.033-.061l-.008-.014-.001-.004zM328.249 148.339l-.492.091.006.03.009.029.477-.15zm0 0l-.477.15v.001l.001.002.003.01.012.037.045.142c.04.123.098.304.174.534.15.458.368 1.11.637 1.884.537 1.548 1.28 3.59 2.099 5.559.815 1.96 1.719 3.879 2.583 5.162.425.632.878 1.167 1.349 1.455.242.148.523.251.826.233.315-.019.588-.163.808-.387.673-.685 1.365-2.028 2.018-3.566.663-1.564 1.318-3.411 1.895-5.173.577-1.764 1.079-3.45 1.437-4.695.179-.623.322-1.135.42-1.493.049-.178.087-.318.112-.413l.028-.101c.607-1.279.896-3.069 1.005-4.988.111-1.955.037-4.103-.114-6.098-.151-1.997-.38-3.852-.582-5.225-.1-.687-.195-1.255-.27-1.662-.037-.203-.071-.37-.098-.492-.014-.06-.027-.115-.039-.16-.006-.022-.014-.047-.022-.072l-.001-.001c-.002-.005-.005-.016-.011-.03-.058-.197-.103-.397-.136-.6l3.455-.397-3.408 60.747-17.983-3.775-3.687-24.413 3.638-32.754 1.819.236c-.075 1.037-.199 2.07-.371 3.095-.07.338-.07.862-.037 1.465.034.628.107 1.401.207 2.26.2 1.718.508 3.804.83 5.819.321 2.015.657 3.964.913 5.408.127.723.235 1.319.311 1.735.037.208.067.371.088.482l.023.127.006.032.002.008v.003l.492-.091zM353.599 175.318v.002l.153 5.838-.823.746-1.052-13.135h1.577l.145 6.549z" opacity=".1"/>
    <g opacity=".1">
      <mask id="a" fill="#fff">
        <path d="M313.077 164.114c-.026.488-.095.973-.206 1.449 0-.134 0-.21-.029-.221-.109-.029.022-.583.235-1.228z"/>
      </mask>
      <path fill="#000" d="M313.077 164.114c-.026.488-.095.973-.206 1.449 0-.134 0-.21-.029-.221-.109-.029.022-.583.235-1.228z"/>
      <path fill="#264653" d="M313.077 164.114l.999.055-1.948-.369.949.314zm-.206 1.449h-1l1.974.227-.974-.227zm-.029-.221l.351-.936-.046-.017-.047-.013-.258.966zm-.763-1.282c-.024.43-.085.857-.182 1.277l1.948.453c.124-.533.201-1.075.231-1.621l-1.997-.109zm1.792 1.503c0-.044.001-.156-.009-.254-.004-.046-.017-.165-.068-.301-.049-.128-.203-.453-.601-.602l-.702 1.872c-.384-.144-.527-.455-.568-.561-.043-.114-.05-.205-.051-.213-.002-.024-.001-.031-.001.059h2zm-.771-1.187c.454.121.618.488.66.614.045.133.043.233.043.243 0 .035-.004.02.015-.073.035-.167.107-.424.209-.731l-1.899-.629c-.112.338-.212.68-.269.958-.027.13-.056.3-.056.466-.001.076.003.229.061.401.055.165.238.555.72.683l.516-1.932z" mask="url(#a)"/>
    </g>
    <path fill="#000" stroke="#264653" d="M312.437 173.101c.204-1.411.431-3.024.61-4.408l.052.076H315.882l-1.066 13.125c-.129-.117-.272-.248-.429-.39-.695-.632-1.649-1.5-2.727-2.484l.247-2.338.001-.007.008-.054.032-.209c.027-.181.067-.443.115-.767.097-.649.23-1.547.374-2.544z" opacity=".1"/>
    <path fill="#264653" d="M326.67 122.059s-1.13-1.663-2.681 1.546c0 0-4.042 2.344-5.432 2.609-1.391.264-6.339 2.003-6.339 2.003-.747.54-1.646.83-2.568.829-1.55 0-2.836 3.402-2.647 5.253.188 1.851-.112 3.213-1.547 3.289-1.434.076-.644 3.057-.644 3.057l9.558 10.958s.605 10.088.304 10.392c-.301.304-1.398 3.26-1.134 3.362.265.101-1.448 11.258-1.448 11.258l-2.304 21.651s0 3.622 4.687 4.872c4.686 1.249 16.215.424 16.957-2.866l2.38-3.1s4.078 7.936 10.312 7.143c6.233-.793 10.202-3.061 10.202-3.061l-.68-25.947-.453-18.702 9.732-15.993s-2.608-4.988-2.38-7.244c.228-2.257.678-3.967-4.875-4.76 0 0-4.683-.699-7.443-2.608-1.64-1.139-3.432-2.042-5.324-2.681 0 0-1.557-2.898-2.64-1.905 0 0 1.086 4.097.996 4.709-.091.612.17 3.38.34 3.666.17.286 2.438 13.62.131 18.38 0 0-3.387 12.834-5.796 15.264-2.408 2.431-7.703-14.431-7.703-14.431s-2.796-15.04-2.344-17.156c.453-2.115.783-9.787.783-9.787z"/>
    <path fill="#3F3D56" d="M334.753 171.594c.918 0 1.663-.744 1.663-1.662 0-.919-.745-1.663-1.663-1.663s-1.662.744-1.662 1.663c0 .918.744 1.662 1.662 1.662zM334.753 179.433c.918 0 1.663-.744 1.663-1.663 0-.918-.745-1.662-1.663-1.662s-1.662.744-1.662 1.662c0 .919.744 1.663 1.662 1.663z"/>
    <path fill="url(#paint5_linear)" d="M334.753 171.594c.918 0 1.663-.744 1.663-1.662 0-.919-.745-1.663-1.663-1.663s-1.662.744-1.662 1.663c0 .918.744 1.662 1.662 1.662z"/>
    <path fill="url(#paint6_linear)" d="M334.753 179.433c.918 0 1.663-.744 1.663-1.663 0-.918-.745-1.662-1.663-1.662s-1.662.744-1.662 1.662c0 .919.744 1.663 1.662 1.663z"/>
    <path fill="#000" stroke="#264653" stroke-miterlimit="10" d="M349.694 276.856s6.824.529 7.501 1.058c.678.529-7.501-1.058-7.501-1.058zM309.067 271.491s1.449 1.812.833 2.645c-.615.833-.833-2.645-.833-2.645zM310.806 278.023s2.644-1.739 3.701-.584c1.058 1.156-3.701.584-3.701.584z" opacity=".1"/>
    <path fill="#000" stroke="#264653" d="M342.371 105.207c.515 1.165.805 2.415.857 3.685-.143-.215-.327-.38-.485-.508-.072-.059-.146-.116-.214-.169l-.011-.008c-.066-.051-.127-.097-.186-.145-.125-.1-.221-.189-.293-.278h0l-.003-.003c-.168-.205-.252-.476-.279-.832-.023-.297-.004-.604.016-.939.004-.081.009-.163.014-.247.024-.452-.019-.977-.191-1.445-.173-.471-.498-.935-1.064-1.141-.144-.053-.291-.082-.396-.103-.01-.002-.02-.004-.029-.006-.121-.025-.192-.042-.25-.066l-.001-.001c-.15-.063-.278-.198-.436-.458-.052-.087-.099-.17-.15-.262-.028-.051-.058-.104-.091-.163-.087-.152-.188-.32-.311-.477-.509-.656-1.253-.954-2.002-1.025-.745-.072-1.53.075-2.202.346l-.014.006-.015.007c-.515.247-1.043.468-1.581.661-.212.074-.437.104-.662.088-.217-.017-.43-.076-.624-.176-.082-.054-.161-.12-.268-.209l-.002-.002c-.105-.088-.24-.2-.397-.297h0l-.005-.003c-.568-.342-1.198-.323-1.745-.155-.544.167-1.052.492-1.446.845-.233.208-.473.459-.693.692-.122.127-.238.249-.344.355-.327.325-.64.583-1.002.739h0l-.007.003c-.073.034-.15.064-.241.1-.016.006-.033.012-.049.019-.107.042-.231.092-.351.152-.238.118-.526.307-.69.649l-.004.009-.004.008c-.123.281-.177.588-.158.895.001.355.011.71.022 1.058.001.022.001.044.002.066.01.333.021.658.023.983.005.692-.027 1.353-.163 1.992h0c-.081.382-.254.776-.483 1.049-.21.252-.422.356-.633.348-.198-1.282-.147-2.591.15-3.856.321-1.369.925-2.656 1.772-3.779.847-1.122 1.919-2.056 3.147-2.741 1.228-.685 2.585-1.1063 3.986-1.2369 1.4-.1307 2.812.0322 4.145.4782 1.334.4457 2.56 1.1657 3.6 2.1117 1.04.947 1.871 2.1 2.441 3.386z" opacity=".1"/>
    <path fill="#264653" d="M322.219 110.652c.271.062.529.203.807.239.902.109 1.525-.898 1.714-1.786.293-1.38.141-2.811.13-4.22-.02-.232.018-.465.112-.677.207-.391.703-.5 1.087-.681.876-.391 1.449-1.225 2.173-1.873.724-.648 1.778-1.127 2.597-.634.242.145.438.362.677.514.262.136.548.218.842.24.294.021.589-.017.868-.113.561-.166 1.086-.46 1.626-.681 1.21-.492 2.81-.511 3.622.518.402.518.586 1.261 1.188 1.514.221.095.471.105.699.189.764.286.96 1.275.927 2.09-.033.815-.141 1.731.362 2.362.42.514 1.217.782 1.308 1.449.058.427-.225.825-.272 1.253-.011.159.01.318.061.469.052.151.132.29.238.409.105.119.233.216.377.286.143.069.299.109.458.118.941 0 1.524-1.054 2.405-1.391.362-.141.8-.163 1.086-.449.107-.138.182-.297.22-.466.039-.17.041-.345.005-.516-.178-1.387-1.29-2.593-1.17-3.984.112-1.333 1.347-2.496 1.086-3.807-.132-.484-.381-.928-.724-1.2935-.388-.5262-.894-.9542-1.478-1.2497-.503-.2173-1.086-.268-1.546-.5325-1.369-.7498-1.366-2.7059-2.173-4.0389-.347-.5509-.839-.9957-1.421-1.2858-.583-.2901-1.234-.4142-1.883-.3587-1.017.1014-1.941.6411-2.948.8222-1.38.2464-2.778-.2064-4.085-.7244-1.308-.518-2.63-1.0867-4.031-1.0867-1.402 0-2.92.7244-3.347 2.0502-.225.7245-.112 1.4997-.286 2.2278-.304 1.2931-1.449 2.2132-2.601 2.8544-.793.4419-1.745.949-1.84 1.8506-.061.573.254 1.087.453 1.641.339.938.331 1.966-.022 2.898-.264.685-.706 1.286-.974 1.967-.19.462-.28.96-.264 1.459.016.5.138.99.358 1.439.169.327.403.617.688.85.284.234.614.407.967.508.714.171 1.163-.536 1.924-.369z"/>
    <g opacity=".1">
      <g opacity=".1">
        <mask id="b" fill="#fff">
          <path d="M324.739 108.315c-.188.888-.815 1.895-1.717 1.786-.279-.036-.532-.177-.808-.239-.757-.166-1.206.544-1.919.362-.355-.101-.685-.274-.97-.508-.285-.233-.52-.523-.689-.85-.19-.369-.304-.771-.337-1.184-.072.641.045 1.289.337 1.865.169.327.404.617.689.85.285.234.615.407.97.508.724.167 1.162-.543 1.919-.362.265.092.535.171.808.236.902.112 1.529-.895 1.717-1.783.148-.784.207-1.582.174-2.379-.004.57-.062 1.139-.174 1.698z"/>
        </mask>
        <path fill="#000" d="M324.739 108.315c-.188.888-.815 1.895-1.717 1.786-.279-.036-.532-.177-.808-.239-.757-.166-1.206.544-1.919.362-.355-.101-.685-.274-.97-.508-.285-.233-.52-.523-.689-.85-.19-.369-.304-.771-.337-1.184-.072.641.045 1.289.337 1.865.169.327.404.617.689.85.285.234.615.407.97.508.724.167 1.162-.543 1.919-.362.265.092.535.171.808.236.902.112 1.529-.895 1.717-1.783.148-.784.207-1.582.174-2.379-.004.57-.062 1.139-.174 1.698z"/>
        <path fill="#264653" d="M323.022 110.101l-.129.992.009.001.12-.993zm-.808-.239l.219-.976h-.004l-.215.976zm-1.919.362l-.276.962.015.004.015.004.246-.97zm-1.659-1.358l-.89.457.002.003.888-.46zm-.337-1.184l.997-.08-1.991-.032.994.112zm.337 1.865l-.892.452.004.008.888-.46zm1.659 1.358l-.276.962.026.007.026.006.224-.975zm1.919-.362l.329-.944-.047-.017-.049-.011-.233.972zm.808.236l-.23.973.053.012.054.007.123-.992zm1.717-1.783l.978.208.002-.011.002-.01-.982-.187zm.174-2.379l.999-.042-1.999.035 1 .007zm-1.152 1.491c-.068.319-.213.633-.379.831-.162.193-.239.17-.24.169l-.24 1.986c.901.109 1.588-.364 2.012-.869.419-.5.682-1.134.803-1.702l-1.956-.415zm-.61 1.002c-.023-.003-.067-.014-.197-.06-.1-.036-.307-.116-.521-.164l-.437 1.952c.061.014.119.036.283.095.136.048.358.127.614.16l.258-1.983zm-.722-.224c-.742-.164-1.332.129-1.603.252-.164.074-.228.1-.279.113-.017.004-.022.003-.017.003.002 0 .004 0 .007.001h.004l-.492 1.939c.742.188 1.344-.118 1.602-.234.321-.146.334-.124.348-.121l.43-1.953zm-1.859.377c-.223-.064-.431-.173-.611-.32l-1.267 1.547c.39.32.842.557 1.327.696l.551-1.923zm-.611-.32c-.18-.148-.328-.33-.435-.537l-1.776.92c.232.448.553.844.944 1.164l1.267-1.547zm-.434-.534c-.129-.251-.207-.525-.229-.807l-1.994.159c.044.545.195 1.076.444 1.562l1.779-.914zm-2.22-.839c-.094.835.059 1.68.439 2.429l1.784-.904c-.204-.402-.286-.854-.235-1.302l-1.988-.223zm.443 2.437c.232.448.553.844.944 1.164l1.267-1.547c-.18-.148-.328-.33-.435-.537l-1.776.92zm.944 1.164c.39.32.842.557 1.327.696l.551-1.923c-.223-.064-.431-.173-.611-.32l-1.267 1.547zm1.379.709c.738.17 1.333-.136 1.585-.251.311-.141.317-.115.326-.113l.465-1.945c-.749-.179-1.34.111-1.619.238-.166.075-.231.102-.286.117-.02.005-.027.005-.025.005h.002l-.448 1.949zm1.815-.392c.297.103.599.191.906.264l.46-1.946c-.24-.057-.476-.126-.709-.207l-.657 1.889zm1.013.283c.901.112 1.59-.359 2.015-.865.419-.5.682-1.134.803-1.702l-1.956-.415c-.068.319-.213.633-.379.83-.16.192-.236.167-.236.167l-.247 1.985zm2.822-2.588c.163-.859.227-1.734.191-2.608l-1.998.083c.029.721-.023 1.443-.158 2.152l1.965.373zm-1.808-2.573c-.003.507-.055 1.012-.155 1.509l1.961.393c.125-.622.19-1.255.194-1.889l-2-.013z" mask="url(#b)"/>
      </g>
      <g opacity=".1">
        <mask id="c" fill="#fff">
          <path d="M319.777 102.86c.046-.593-.036-1.19-.239-1.749-.164-.372-.303-.755-.417-1.145-.015.061-.028.122-.036.185-.062.568.257 1.086.453 1.641.126.344.207.703.239 1.068z"/>
        </mask>
        <path fill="#000" d="M319.777 102.86c.046-.593-.036-1.19-.239-1.749-.164-.372-.303-.755-.417-1.145-.015.061-.028.122-.036.185-.062.568.257 1.086.453 1.641.126.344.207.703.239 1.068z"/>
        <path fill="#264653" d="M319.538 101.111l.939-.342-.011-.031-.013-.03-.915.403zm-.417-1.145l.96-.2794-1.022-3.515-.907 3.5467.969.2477zm-.036.185l-.991-.137-.002.015-.001.014.994.108zm.453 1.641l-.943.332.004.013.939-.345zm1.236 1.146c.057-.736-.044-1.476-.297-2.169l-1.879.684c.155.425.217.878.182 1.33l1.994.155zm-.321-2.23c-.146-.332-.27-.673-.372-1.0214l-1.92.5584c.126.433.28.857.462 1.269l1.83-.806zm-2.301-.9897c-.025.0975-.044.1963-.058.2957l1.982.273c.003-.025.008-.049.014-.073l-1.938-.4957zm-.061.3247c-.055.503.065.941.182 1.27.059.164.126.323.18.453.057.139.103.25.142.358l1.886-.665c-.06-.169-.127-.33-.182-.462-.059-.141-.105-.251-.142-.357-.076-.211-.085-.316-.078-.382l-1.988-.215zm.508 2.094c.096.261.157.534.182.811l1.992-.176c-.04-.453-.14-.898-.297-1.325l-1.877.69z" mask="url(#c)"/>
      </g>
      <g opacity=".1">
        <mask id="d" fill="#fff">
          <path d="M347.448 100.951c-.17 1.029-1.003 1.996-1.086 3.079-.02.186-.02.373 0 .558.181-1.264 1.3-2.383 1.086-3.637z"/>
        </mask>
        <path fill="#000" d="M347.448 100.951c-.17 1.029-1.003 1.996-1.086 3.079-.02.186-.02.373 0 .558.181-1.264 1.3-2.383 1.086-3.637z"/>
        <path fill="#264653" d="M347.448 100.951l.986-.168-1.972.005.986.163zm-1.086 3.079l.994.108.002-.016.001-.015-.997-.077zm0 .558l-.994.108 1.984.034-.99-.142zm.1-3.8c-.057.344-.229.697-.493 1.254-.233.492-.547 1.161-.604 1.912l1.994.153c.025-.333.17-.689.417-1.208.216-.455.546-1.099.659-1.785l-1.973-.326zm-1.094 3.135c-.028.257-.028.516 0 .773l1.988-.216c-.012-.113-.012-.228 0-.342l-1.988-.215zm1.984.807c.063-.444.288-.854.608-1.544.277-.597.638-1.444.474-2.403l-1.971.336c.05.294-.043.634-.317 1.226-.232.499-.657 1.281-.774 2.101l1.98.284z" mask="url(#d)"/>
      </g>
      <g opacity=".1">
        <mask id="e" fill="#fff">
          <path d="M347.51 108.594c-.031.152-.102.292-.207.406-.268.286-.724.308-1.086.449-.881.337-1.449 1.402-2.405 1.391-.245-.014-.48-.101-.674-.251-.194-.15-.338-.356-.413-.589-.022.078-.039.158-.051.239-.01.159.011.318.063.468.051.15.132.289.238.408.105.119.233.215.376.285.143.069.298.109.457.118.945 0 1.525-1.054 2.405-1.388.362-.141.804-.163 1.087-.449.106-.137.181-.296.22-.466.039-.17.04-.345.004-.516-.004-.043-.011-.072-.014-.105z"/>
        </mask>
        <path fill="#000" d="M347.51 108.594c-.031.152-.102.292-.207.406-.268.286-.724.308-1.086.449-.881.337-1.449 1.402-2.405 1.391-.245-.014-.48-.101-.674-.251-.194-.15-.338-.356-.413-.589-.022.078-.039.158-.051.239-.01.159.011.318.063.468.051.15.132.289.238.408.105.119.233.215.376.285.143.069.298.109.457.118.945 0 1.525-1.054 2.405-1.388.362-.141.804-.163 1.087-.449.106-.137.181-.296.22-.466.039-.17.04-.345.004-.516-.004-.043-.011-.072-.014-.105z"/>
        <path fill="#264653" d="M347.51 108.594l.993-.11-1.973-.088.98.198zm-.207.406l.73.684.008-.009-.738-.675zm-1.086.449l.357.934.006-.002-.363-.932zm-2.405 1.391l-.057.999.023.001h.022l.012-1zm-1.087-.84l.952-.306-1.015-3.162-.9 3.197.963.271zm-.051.239l-.989-.143-.006.039-.003.039.998.065zm1.134 1.279l-.055.998.027.002h.028v-1zm2.405-1.388l.354.936.009-.004-.363-.932zm1.087-.449l.711.703.043-.043.037-.048-.791-.612zm.224-.982l-.996.083.005.063.013.061.978-.207zm-.994-.303c.005-.027.017-.051.036-.071l1.475 1.35c.227-.247.382-.552.449-.882l-1.96-.397zm.043-.079c.05-.054.078-.039-.07.006-.075.023-.141.039-.262.071-.104.028-.244.068-.388.124l.727 1.863c.037-.015.09-.031.182-.056.074-.02.208-.054.325-.09.238-.072.628-.212.946-.551l-1.46-1.367zm-.714.198c-.639.245-1.178.762-1.453.989-.365.301-.497.337-.583.336l-.023 2c.871.01 1.5-.481 1.879-.794.469-.387.654-.57.895-.663l-.715-1.868zm-1.991 1.327c-.043-.003-.084-.018-.118-.044l-1.224 1.582c.354.273.782.433 1.229.459l.113-1.997zm-.118-.044c-.034-.027-.06-.063-.073-.104l-1.904.612c.137.426.399.8.753 1.074l1.224-1.582zm-1.988-.069c-.033.121-.059.243-.077.367l1.979.286c.006-.038.013-.075.024-.111l-1.926-.542zm-.086.445c-.018.291.021.582.115.857l1.892-.648c-.009-.026-.012-.053-.011-.079l-1.996-.13zm.115.857c.094.275.242.529.435.747l1.497-1.327c-.018-.02-.031-.043-.04-.068l-1.892.648zm.435.747c.193.218.428.395.69.522l.87-1.801c-.024-.011-.045-.028-.063-.048l-1.497 1.327zm.69.522c.262.127.546.2.837.216l.11-1.997c-.027-.001-.053-.008-.077-.02l-.87 1.801zm.892.218c.858 0 1.483-.487 1.86-.795.466-.381.657-.566.899-.658l-.708-1.87c-.638.242-1.177.751-1.457.98-.37.302-.506.343-.594.343v2zm2.768-1.456c.039-.015.093-.032.183-.056.074-.021.205-.054.322-.09.241-.075.613-.212.93-.532l-1.423-1.405c.034-.035.045-.018-.096.025-.075.023-.14.039-.259.072-.104.028-.241.067-.383.123l.726 1.863zm1.515-.769c.195-.252.333-.544.404-.855l-1.95-.446c-.006.028-.019.055-.037.077l1.583 1.224zm.404-.855c.071-.311.073-.634.007-.945l-1.956.413c.006.029.005.058-.001.086l1.95.446zm.026-.822c-.005-.059-.013-.107-.017-.133-.001-.005-.002-.012-.002-.014-.001-.002-.001-.003-.001-.004v-.001s.001.008.002.02l-1.987.221c.003.028.006.051.009.067.001.008.002.016.003.02.001.006.001.008.002.011.001.007-.001-.004-.002-.021l1.993-.166z" mask="url(#e)"/>
      </g>
      <g opacity=".1">
        <mask id="f" fill="#fff">
          <path d="M342.968 108.294c-.091-.66-.888-.928-1.308-1.449-.258-.343-.397-.76-.398-1.188-.029.673-.018 1.362.398 1.869.417.507 1.05.724 1.253 1.246.051-.154.07-.317.055-.478z"/>
        </mask>
        <path fill="#000" d="M342.968 108.294c-.091-.66-.888-.928-1.308-1.449-.258-.343-.397-.76-.398-1.188-.029.673-.018 1.362.398 1.869.417.507 1.05.724 1.253 1.246.051-.154.07-.317.055-.478z"/>
        <path fill="#264653" d="M341.66 106.845l-.799.601.01.013.01.013.779-.627zm-.398-1.188l1-.003-1.999-.04.999.043zm1.651 3.115l-.932.362 1.005 2.584.876-2.63-.949-.316zm1.045-.614c-.1-.734-.596-1.177-.888-1.415-.079-.065-.159-.126-.227-.178-.072-.055-.131-.1-.187-.146-.115-.092-.179-.154-.217-.201l-1.558 1.254c.172.213.365.38.521.506.079.063.158.124.224.174.07.054.127.098.179.14.234.191.182.212.172.138l1.981-.272zm-1.499-1.914c-.127-.17-.197-.377-.197-.59l-2 .005c.001.645.211 1.271.599 1.787l1.598-1.202zm-2.196-.63c-.028.637-.064 1.708.624 2.546l1.546-1.269c-.144-.176-.203-.482-.172-1.191l-1.998-.086zm.624 2.546c.3.366.691.637.867.774.233.18.235.22.227.2l1.864-.725c-.21-.541-.627-.871-.865-1.056-.296-.229-.431-.32-.547-.462l-1.546 1.269zm2.975.928c.095-.286.13-.589.101-.889l-1.991.19c.002.022 0 .045-.008.067l1.898.632z" mask="url(#f)"/>
      </g>
      <g opacity=".1">
        <mask id="g" fill="#fff">
          <path d="M341.283 104.501c.029-.815-.166-1.811-.931-2.09-.224-.083-.474-.094-.695-.185-.601-.253-.79-.999-1.188-1.514-.808-1.0322-2.405-1.0141-3.622-.521-.543.221-1.061.514-1.626.681-.278.098-.573.137-.866.115-.294-.022-.58-.104-.84-.242-.239-.152-.435-.362-.677-.515-.823-.4922-1.895 0-2.601.634s-1.278 1.482-2.173 1.873c-.406.181-.898.29-1.108.681-.093.213-.131.446-.113.677v.424c.005-.146.041-.289.105-.42.21-.391.703-.5 1.109-.681.876-.391 1.448-1.224 2.173-1.873.724-.648 1.778-1.126 2.6-.634.243.145.439.363.678.511.259.139.545.222.839.244.294.022.589-.018.867-.117.553-.197 1.096-.423 1.626-.677 1.213-.493 2.81-.515 3.622.518.398.514.586 1.26 1.188 1.514.221.094.47.105.695.188.619.232.866.927.92 1.616l.018-.207z"/>
        </mask>
        <path fill="#000" d="M341.283 104.501c.029-.815-.166-1.811-.931-2.09-.224-.083-.474-.094-.695-.185-.601-.253-.79-.999-1.188-1.514-.808-1.0322-2.405-1.0141-3.622-.521-.543.221-1.061.514-1.626.681-.278.098-.573.137-.866.115-.294-.022-.58-.104-.84-.242-.239-.152-.435-.362-.677-.515-.823-.4922-1.895 0-2.601.634s-1.278 1.482-2.173 1.873c-.406.181-.898.29-1.108.681-.093.213-.131.446-.113.677v.424c.005-.146.041-.289.105-.42.21-.391.703-.5 1.109-.681.876-.391 1.448-1.224 2.173-1.873.724-.648 1.778-1.126 2.6-.634.243.145.439.363.678.511.259.139.545.222.839.244.294.022.589-.018.867-.117.553-.197 1.096-.423 1.626-.677 1.213-.493 2.81-.515 3.622.518.398.514.586 1.26 1.188 1.514.221.094.47.105.695.188.619.232.866.927.92 1.616l.018-.207z"/>
        <path fill="#264653" d="M341.283 104.501l.996.087.003-.025v-.026l-.999-.036zm-.931-2.09l-.348.938.005.001.343-.939zm-.695-.185l-.389.922.01.004.379-.926zm-1.188-1.514l.79-.612-.003-.004-.787.616zm-3.622-.521l-.375-.9274-.002.0006.377.9268zm-1.626.681l-.283-.9596-.025.0074-.025.0087.333.9435zm-1.706-.127l-.537.843.033.022.035.018.469-.883zm-.677-.515l.531-.8469-.009-.0053-.008-.0052-.514.8574zm-4.774 2.507l-.401-.916-.007.003.408.913zm-1.108.681l-.881-.473-.021.037-.016.039.918.397zm-.113.677h1v-.039l-.003-.04-.997.079zm0 .424h-1l2 .033-1-.033zm.105-.42l-.881-.473-.008.016-.008.016.897.441zm1.109-.681l-.408-.913.408.913zm4.773-2.507l-.514.858.002.001.512-.859zm.678.511l-.528.85.028.017.029.015.471-.882zm1.706.127l-.336-.942.336.942zm1.626-.677l-.376-.927-.029.0116-.028.0133.433.9021zm3.622.518l.79-.613-.004-.005-.786.618zm1.188 1.514l.392-.92-.004-.002-.388.922zm.695.188l.351-.936-.003-.001-.348.937zm.92 1.616l-.997.078 1.993.009-.996-.087zm1.017-.171c.018-.486-.028-1.078-.227-1.625-.202-.553-.607-1.166-1.36-1.44l-.686 1.878c.012.005.087.029.167.248.082.225.119.538.108.868l1.998.071zm-1.582-3.064c-.198-.073-.397-.111-.494-.131-.127-.026-.157-.036-.17-.041l-.758 1.851c.208.085.413.126.523.149.139.028.177.038.203.048l.696-1.876zm-.655-.168s-.06-.021-.204-.258c-.076-.125-.132-.232-.233-.411-.089-.157-.204-.35-.349-.536l-1.581 1.225c.055.07.113.163.191.299.064.113.168.306.264.463.199.328.535.807 1.135 1.061l.777-1.843zm-.789-1.209c-.617-.7891-1.505-1.1305-2.349-1.2119-.837-.0808-1.702.0828-2.435.3795l.75 1.8534c.484-.195 1.026-.287 1.493-.242.462.044.776.21.966.453l1.575-1.232zm-4.786-.8318c-.296.1206-.604.2688-.842.3768-.257.117-.477.2084-.69.2714l.566 1.9186c.351-.104.673-.243.952-.369.298-.136.521-.245.768-.345l-.754-1.8528zm-1.582.6643c-.147.052-.304.0725-.459.0612l-.149 1.9943c.432.032.865-.025 1.273-.169l-.665-1.8865zm-.459.0612c-.156-.0115-.308-.0553-.446-.1284l-.937 1.7667c.383.203.803.324 1.234.356l.149-1.9943zm-.377-.0886c-.057-.0362-.117-.0844-.236-.183-.102-.085-.261-.2181-.447-.335l-1.063 1.6949c.057.035.117.083.233.179.099.083.257.215.439.331l1.074-1.6869zm-.7-.5285c-.728-.4359-1.516-.3987-2.151-.2037-.63.1931-1.199.5623-1.632.9511l1.336 1.489c.273-.246.594-.44.882-.528.283-.087.442-.05.537.007l1.028-1.7154zm-3.783.7474c-.363.326-.798.81-1.052 1.061-.313.31-.575.518-.854.64l.802 1.832c.615-.269 1.086-.681 1.46-1.051.433-.429.636-.685.98-.993l-1.336-1.489zm-1.913 1.704c-.074.033-.152.063-.272.11-.108.042-.249.098-.39.168-.28.138-.672.381-.919.843l1.762.946c-.038.07-.078.064.042.005.058-.029.13-.059.235-.1.093-.037.229-.088.358-.146l-.816-1.826zm-1.618 1.197c-.157.364-.223.759-.192 1.154l1.994-.159c-.005-.069.006-.138.034-.201l-1.836-.794zm-.195 1.074v.424h2v-.424h-2zm2 .457c0-.004.001-.008.003-.012l-1.795-.882c-.127.258-.198.541-.207.828l1.999.066zm-.014.02c-.037.07-.077.064.043.005.058-.029.13-.059.235-.1.093-.037.229-.088.357-.146l-.815-1.826c-.074.033-.152.063-.272.11-.108.042-.249.098-.39.168-.281.138-.672.381-.92.843l1.762.946zm.635-.241c.603-.269 1.067-.674 1.438-1.041.427-.42.643-.685.995-1l-1.334-1.49c-.373.334-.805.81-1.065 1.066-.314.31-.575.517-.849.639l.815 1.826zm2.433-2.041c.284-.254.605-.447.888-.533.274-.083.431-.048.531.012l1.028-1.715c-.722-.4331-1.502-.4048-2.142-.2102-.63.1922-1.199.5622-1.639.9562l1.334 1.49zm1.421-.52c.043.026.096.066.212.163.096.081.26.22.45.339l1.055-1.699c-.049-.031-.102-.074-.224-.176-.102-.085-.269-.225-.468-.344l-1.025 1.717zm.719.534c.382.205.803.327 1.236.359l.148-1.995c-.155-.011-.305-.055-.442-.128l-.942 1.764zm1.236.359c.433.032.867-.026 1.276-.172l-.671-1.884c-.146.052-.302.073-.457.061l-.148 1.995zm1.276-.172c.587-.209 1.162-.448 1.723-.718l-.865-1.8031c-.498.2391-1.008.4521-1.529.6371l.671 1.884zm1.667-.693c.482-.196 1.023-.288 1.491-.244.461.044.777.209.968.453l1.573-1.235c-.619-.7885-1.508-1.1286-2.352-1.2088-.837-.0796-1.701.085-2.432.3818l.752 1.853zm2.455.204c.055.071.113.164.19.299.065.114.169.306.264.463.2.328.535.808 1.136 1.061l.777-1.843s-.06-.02-.204-.258c-.077-.125-.132-.231-.234-.41-.089-.157-.203-.35-.348-.537l-1.581 1.225zm1.586 1.822c.212.09.42.133.533.156.143.031.179.039.207.05l.696-1.875c-.197-.073-.397-.112-.491-.132-.058-.012-.094-.02-.123-.028-.028-.007-.037-.011-.037-.011l-.785 1.84zm.737.205c.02.007.068.027.13.15.068.136.123.343.144.607l1.994-.157c-.06-.757-.358-2.021-1.566-2.473l-.702 1.873zm2.267.766l.018-.207-1.992-.174-.018.206 1.992.175z" mask="url(#g)"/>
      </g>
    </g>
    <g opacity=".1">
      <path fill="#000" stroke="#264653" d="M329.632 110.796l-.001.001-.014.014c-.016.014-.041.037-.075.067-.067.059-.167.143-.295.239-.258.195-.621.433-1.047.619-.85.372-1.886.515-2.89-.224-.614-.465-1.043-1.132-1.213-1.883h0l-.002-.011c-.107-.428-.157-.869-.149-1.311.018-.491.194-.964.503-1.347.309-.384.734-.657 1.212-.778 1.521-.372 3.117-.299 4.599.208h0l.005.002c.735.243.978.599 1.051.931.085.383-.023.878-.276 1.427-.247.535-.599 1.049-.897 1.436-.148.191-.279.348-.373.456-.047.054-.085.096-.11.124l-.028.03zM336.171 110.811l-.014-.014-.001-.001-.028-.03c-.025-.028-.063-.07-.11-.124-.094-.108-.225-.265-.373-.456-.298-.387-.65-.901-.897-1.436-.253-.549-.361-1.044-.276-1.427.073-.332.316-.688 1.051-.931h0l.005-.001c1.481-.508 3.076-.58 4.596-.209.478.121.904.393 1.214.777.309.383.486.856.504 1.348.008.442-.042.883-.148 1.311h-.001l-.002.011c-.17.751-.599 1.418-1.213 1.883-1.006.739-2.042.596-2.891.224-.426-.186-.788-.424-1.046-.619-.128-.096-.228-.18-.295-.239-.034-.029-.059-.052-.075-.067z" opacity=".1"/>
      <g opacity=".1">
        <mask id="h" fill="#fff">
          <path d="M329.773 105.584v.17h6.277v-.202l-6.277.032z"/>
        </mask>
        <path fill="#000" d="M329.773 105.584v.17h6.277v-.202l-6.277.032z"/>
        <path fill="#264653" d="M329.773 105.584l-.005-1-.995.005v.995h1zm0 .17h-1v1h1v-1zm6.277 0v1h1v-1h-1zm0-.202h1v-1.006l-1.005.006.005 1zm-7.277.032v.17h2v-.17h-2zm1 1.17h6.277v-2h-6.277v2zm7.277-1v-.202h-2v.202h2zm-1.005-1.202l-6.277.032.011 2 6.276-.032-.01-2z" mask="url(#h)"/>
      </g>
      <g opacity=".1">
        <mask id="i" fill="#fff">
          <path d="M331.777 107.399h.2v-.576s.637-.496 1.695 0v.514h.362v-.336h-.178s.073-.7-1.108-.587c0 0-.949-.091-.927.51h-.217l.173.475z"/>
        </mask>
        <path fill="#000" d="M331.777 107.399h.2v-.576s.637-.496 1.695 0v.514h.362v-.336h-.178s.073-.7-1.108-.587c0 0-.949-.091-.927.51h-.217l.173.475z"/>
        <path fill="#264653" d="M331.777 107.399l-.939.344.241.656h.698v-1zm.2 0v1h1v-1h-1zm0-.576l-.615-.789-.385.3v.489h1zm1.695 0h1v-.635l-.576-.27-.424.905zm0 .514h-1v1h1v-1zm.362 0v1h1v-1h-1zm0-.336h1v-1h-1v1zm-.178 0l-.994-.104-.115 1.104h1.109v-1zm-1.108-.587l-.095.995.095.009.095-.009-.095-.995zm-.927.51v1h1.037l-.038-1.036-.999.036zm-.217 0v-1h-1.432l.493 1.344.939-.344zm.173 1.475h.2v-2h-.2v2zm1.2-1v-.576h-2v.576h2zm-1-.576c.614.789.613.79.613.79s-.001 0-.001.001c-.001 0-.001.001-.002.001-.001.001-.003.002-.004.003-.002.002-.004.004-.007.005-.004.003-.008.006-.011.009-.007.005-.013.008-.016.011-.007.004-.008.004-.003.002.01-.005.04-.019.09-.03.083-.018.284-.04.611.113l.849-1.81c-.73-.343-1.377-.366-1.877-.259-.242.051-.437.13-.579.203-.072.036-.131.071-.177.101-.023.015-.043.028-.06.04-.008.006-.016.012-.023.017-.003.003-.006.005-.009.007-.002.002-.003.003-.005.004 0 0-.001.001-.002.001 0 .001-.001.001-.001.001 0 .001-.001.001.614.79zm.695 0v.514h2v-.514h-2zm1 1.514h.362v-2h-.362v2zm1.362-1v-.336h-2v.336h2zm-1-1.336h-.178v2h.178v-2zm-.178 1c.995.103.995.102.995.101v-.002c0-.001.001-.002.001-.003v-.007c.001-.005.001-.01.002-.015 0-.011.001-.022.002-.035.001-.025.002-.054.001-.086-.001-.065-.007-.147-.024-.241-.034-.186-.117-.436-.309-.675-.424-.526-1.103-.693-1.871-.62l.19 1.991c.413-.039.288.087.123-.117-.063-.078-.09-.16-.101-.219-.005-.03-.007-.058-.008-.085 0-.014 0-.028.001-.043 0-.007.001-.015.001-.023.001-.004.001-.008.001-.012.001-.002.001-.004.001-.006v-.003-.002c.001-.001.001-.002.995.102zm-1.108-.587c.095-.996.095-.996.094-.996h-.005c-.002 0-.004-.001-.007-.001-.005 0-.011-.001-.018-.001-.015-.001-.033-.003-.055-.004-.042-.002-.1-.004-.167-.003-.129.001-.323.012-.532.059-.197.044-.5.14-.764.374-.306.271-.489.664-.473 1.119l1.999-.073c.002.06-.007.145-.048.24-.041.093-.099.164-.153.212-.093.082-.162.088-.124.079.025-.005.067-.01.115-.01.021 0 .038 0 .047.001h0s-.001-.001-.002-.001h-.001c-.001 0-.001 0 .094-.995zm-.927-.49h-.217v2h.217v-2zm-1.156 1.344l.173.475 1.878-.688-.174-.475-1.877.688z" mask="url(#i)"/>
      </g>
    </g>
    <path fill="#264653" d="M323.446 108.058c.021-.601.236-1.179.614-1.648.378-.468.897-.801 1.48-.949 1.615-.392 3.309-.315 4.882.221 3.437 1.141-.434 5.231-.434 5.231s-2.576 2.535-4.977.764c-.711-.535-1.208-1.305-1.402-2.173-.118-.473-.172-.959-.163-1.446zM342.342 108.058c-.021-.601-.237-1.18-.615-1.648-.379-.469-.899-.802-1.482-.949-1.615-.392-3.307-.316-4.879.221-3.437 1.141.435 5.231.435 5.231s2.571 2.535 4.976.764c.711-.535 1.208-1.305 1.402-2.173.118-.473.172-.959.163-1.446z"/>
    <path fill="#264653" d="M329.773 105.356v.174h6.277v-.207l-6.277.033zM331.776 107.171h.2v-.576s.637-.493 1.695 0v.518h.362v-.341h-.178s.073-.695-1.108-.586c0 0-.949-.087-.927.51h-.217l.173.475z"/>
    <path fill="#535461" d="M44.6002 165.61H42.543v46.33h2.0572v-46.33z"/>
    <path fill="#264653" d="M57.5306 211.799l-.1304 2.086-.1811 2.945-.0761 1.228-.1811 2.949-.0796 1.228-.1811 2.945-2.0754 33.496c-.0885 1.441-.7235 2.795-1.7754 3.784-1.0519.989-2.4416 1.54-3.8856 1.54h-10.786c-1.4437 0-2.8329-.551-3.8843-1.54-1.0513-.99-1.6855-2.343-1.7731-3.784l-2.0862-33.496-.1811-2.945-.0761-1.228-.1774-2.956-.0761-1.228-.1811-2.945-.1304-2.086c-.0247-.401.0328-.802.1691-1.18.1363-.377.3484-.722.6233-1.015.2748-.292.6066-.525.9749-.684.3683-.159.7653-.241 1.1664-.24h22.0538c.4016-.001.7991.081 1.1677.241.3686.159.7006.393.9753.686.2747.293.4863.64.6217 1.018.1354.378.1917.78.1654 1.181z"/>
    <path fill="url(#paint7_linear)" d="M57.3997 213.885l-.1811 2.945H29.9204l-.1811-2.945h27.6604z"/>
    <path fill="url(#paint8_linear)" d="M57.1427 218.058l-.1811 2.949H30.1813l-.1847-2.949h27.1461z"/>
    <path fill="url(#paint9_linear)" d="M56.8819 222.235l-.1811 2.945H30.442l-.1847-2.945h26.6246z"/>
    <path fill="#2A9D8F" d="M26.599 182.976c11.9812 8.668 16.9722 22.23 16.9722 22.23s-14.4405-.496-26.4398-9.164C5.13204 187.373.15918 173.811.15918 173.811s14.45502.496 26.43982 9.165z"/>
    <path stroke="#535461" stroke-miterlimit="10" stroke-width="2" d="M.177246 173.811S15.1646 182.143 19.9709 189.025c4.8063 6.883 23.6003 16.185 23.6003 16.185"/>
    <path fill="#2A9D8F" d="M34.3321 165.527c6.5194 4.709 9.2394 12.099 9.2394 12.099s-7.8595-.269-14.3825-4.988c-6.5231-4.72-9.2359-12.099-9.2359-12.099s7.8595.25 14.379 4.988z"/>
    <path stroke="#535461" stroke-miterlimit="10" stroke-width="2" d="M19.9531 160.521s8.1565 4.528 10.7715 8.277c2.6151 3.749 12.8469 8.809 12.8469 8.809"/>
    <path fill="#2A9D8F" d="M53.0496 177.234c-7.4937 8.234-9.0765 18.992-9.0765 18.992s10.5615-2.59 18.0516-10.823c7.4901-8.234 9.0764-18.996 9.0764-18.996s-10.5614 2.59-18.0515 10.827z"/>
    <path stroke="#535461" stroke-miterlimit="10" stroke-width="2" d="M71.1011 166.407s-9.7573 8.44-12.2383 14.258c-2.481 5.817-14.8897 15.576-14.8897 15.576"/>
  </g>
  <defs>
    <linearGradient id="paint0_linear" x1="214.163" x2="214.163" y1="234.033" y2="39.0308" gradientUnits="userSpaceOnUse">
      <stop stop-color="gray" stop-opacity=".25"/>
      <stop offset=".54" stop-color="gray" stop-opacity=".12"/>
      <stop offset="1" stop-color="gray" stop-opacity=".1"/>
    </linearGradient>
    <linearGradient id="paint1_linear" x1="214.177" x2="214.177" y1="39.5742" y2="48.6807" gradientUnits="userSpaceOnUse">
      <stop stop-color="#FF8E6B"/>
      <stop offset="1" stop-color="#F1592A"/>
    </linearGradient>
    <linearGradient id="paint2_linear" x1="136.908" x2="136.908" y1="125.696" y2="181.48" gradientUnits="userSpaceOnUse">
      <stop stop-color="#FF8E6B"/>
      <stop offset="1" stop-color="#F1592A"/>
    </linearGradient>
    <linearGradient id="paint3_linear" x1="136.908" x2="136.908" y1="117.726" y2="189.449" gradientUnits="userSpaceOnUse">
      <stop stop-color="#FF8E6B"/>
      <stop offset="1" stop-color="#F1592A"/>
    </linearGradient>
    <linearGradient id="paint4_linear" x1="66655.1" x2="66655.1" y1="175116" y2="59333.3" gradientUnits="userSpaceOnUse">
      <stop stop-color="gray" stop-opacity=".25"/>
      <stop offset=".54" stop-color="gray" stop-opacity=".12"/>
      <stop offset="1" stop-color="gray" stop-opacity=".1"/>
    </linearGradient>
    <linearGradient id="paint5_linear" x1="334.753" x2="334.753" y1="168.269" y2="171.594" gradientUnits="userSpaceOnUse">
      <stop stop-color="#FF8E6B"/>
      <stop offset="1" stop-color="#F1592A"/>
    </linearGradient>
    <linearGradient id="paint6_linear" x1="334.753" x2="334.753" y1="176.108" y2="179.433" gradientUnits="userSpaceOnUse">
      <stop stop-color="#FF8E6B"/>
      <stop offset="1" stop-color="#F1592A"/>
    </linearGradient>
    <linearGradient id="paint7_linear" x1="43.5695" x2="43.5695" y1="213.885" y2="216.83" gradientUnits="userSpaceOnUse">
      <stop stop-color="#FF8E6B"/>
      <stop offset="1" stop-color="#F1592A"/>
    </linearGradient>
    <linearGradient id="paint8_linear" x1="43.5696" x2="43.5696" y1="218.058" y2="221.007" gradientUnits="userSpaceOnUse">
      <stop stop-color="#FF8E6B"/>
      <stop offset="1" stop-color="#F1592A"/>
    </linearGradient>
    <linearGradient id="paint9_linear" x1="43.5696" x2="43.5696" y1="222.235" y2="225.18" gradientUnits="userSpaceOnUse">
      <stop stop-color="#FF8E6B"/>
      <stop offset="1" stop-color="#F1592A"/>
    </linearGradient>
    <clipPath id="clip0">
      <path fill="#fff" d="M0 0h414.913v297H0z"/>
    </clipPath>
  </defs>
</svg>