<svg width="36" height="36" viewBox="0 0 36 36" fill="none" xmlns="http://www.w3.org/2000/svg">
<path d="M4.62988 11.7427C3.71582 13.7114 3.29395 15.7505 3.29395 17.8599C3.29395 20.813 4.06738 23.4849 5.61426 25.8755C7.16113 28.2661 9.2002 30.0942 11.7314 31.2896L4.62988 11.7427ZM28.3955 17.0864C28.3955 17.6489 28.2549 18.3521 28.1143 19.0552C27.9736 19.5474 27.6924 20.3208 27.4111 21.4458L25.7236 26.9302L20.3799 10.8286L22.0674 10.688C22.2783 10.688 22.4189 10.6177 22.5596 10.4067C22.6299 10.1958 22.6299 9.98486 22.4893 9.77393C22.3486 9.56299 22.208 9.49268 21.9268 9.49268L20.5205 9.56299C19.4658 9.6333 18.6221 9.6333 17.9893 9.6333C17.3564 9.6333 16.5127 9.6333 15.458 9.56299L14.0518 9.49268C13.7705 9.49268 13.5596 9.56299 13.4189 9.77393C13.2783 9.98486 13.2783 10.1958 13.4189 10.4067C13.4893 10.6177 13.6299 10.688 13.9111 10.688C14.4033 10.8286 14.9658 10.8286 15.5283 10.8286L17.8486 17.2271L14.5439 27.0708L9.12988 10.8286L10.8174 10.688C11.0283 10.688 11.1689 10.6177 11.3096 10.4067C11.3799 10.1958 11.3799 9.98486 11.2393 9.77393C11.0986 9.56299 10.958 9.49268 10.7471 9.49268L9.34082 9.56299C8.21582 9.6333 7.37207 9.6333 6.73926 9.6333H5.75488C7.09082 7.59424 8.84863 5.97705 11.0986 4.71143C13.2783 3.51611 15.6689 2.8833 18.2705 2.8833C20.1689 2.8833 21.9971 3.23486 23.7549 3.93799C25.4424 4.64111 26.9893 5.62549 28.3955 6.8208H28.1846C27.4814 6.8208 26.8486 7.10205 26.3564 7.66455C25.8643 8.22705 25.6533 8.78955 25.6533 9.49268C25.6533 10.0552 25.7939 10.5474 26.0752 11.1099C26.2158 11.4614 26.4971 12.0239 26.9893 12.7271L27.1299 13.0083C27.4814 13.7114 27.7627 14.2739 27.9736 14.6958C28.2549 15.5396 28.3955 16.313 28.3955 17.0864ZM18.5518 19.1958L23.1221 31.7817L23.2627 31.9927C21.5752 32.5552 19.958 32.8364 18.2705 32.8364C16.8643 32.8364 15.458 32.6255 14.0518 32.2036L18.5518 19.1958ZM31.4189 10.688C32.6143 12.938 33.2471 15.3286 33.2471 17.8599C33.2471 20.6021 32.5439 23.1333 31.208 25.3833C29.8018 27.7036 28.0439 29.5317 25.7939 30.7974L30.3643 17.5786C31.0674 15.7505 31.4893 13.9224 31.4893 12.2349C31.4893 11.6724 31.4189 11.1802 31.4189 10.688ZM35.708 17.8599C35.708 14.7661 34.8643 11.813 33.3174 9.14111C31.7705 6.46924 29.6611 4.35986 26.9893 2.81299C24.3174 1.26611 21.3643 0.422363 18.2705 0.422363C15.1064 0.422363 12.2236 1.26611 9.55176 2.81299C6.87988 4.35986 4.7002 6.46924 3.15332 9.14111C1.60645 11.813 0.833008 14.7661 0.833008 17.8599C0.833008 21.0239 1.60645 23.9067 3.15332 26.5786C4.7002 29.2505 6.87988 31.4302 9.55176 32.9771C12.2236 34.5239 15.1064 35.2974 18.2705 35.2974C21.3643 35.2974 24.3174 34.5239 26.9893 32.9771C29.6611 31.4302 31.7705 29.2505 33.3174 26.5786C34.8643 23.9067 35.708 21.0239 35.708 17.8599ZM34.9346 17.8599C34.9346 20.8833 34.1611 23.6958 32.6846 26.2271C31.1377 28.7583 29.0986 30.7974 26.5674 32.2739C24.0361 33.8208 21.2236 34.5239 18.2705 34.5239C15.2471 34.5239 12.4346 33.8208 9.90332 32.2739C7.37207 30.7974 5.33301 28.7583 3.85645 26.2271C2.30957 23.6958 1.60645 20.8833 1.60645 17.8599C1.60645 14.9067 2.30957 12.0942 3.85645 9.56299C5.33301 7.03174 7.37207 4.99268 9.90332 3.4458C12.4346 1.96924 15.2471 1.1958 18.2705 1.1958C21.2236 1.1958 24.0361 1.96924 26.5674 3.4458C29.0986 4.99268 31.1377 7.03174 32.6846 9.56299C34.1611 12.0942 34.9346 14.9067 34.9346 17.8599Z" fill="#33759D"/>
</svg>
