<svg xmlns="http://www.w3.org/2000/svg" viewBox="0 0 429.5 429.5" width="255" height="255" xmlns:v="https://vecta.io/nano"><path fill="#f15a2b" d="M388.5 290.7c0 19.5-13.8 43.4-30.7 53.1l-132.3 76.4c-16.9 9.7-44.5 9.7-61.4 0L31.8 343.8C15 334.1 1.2 310.2 1.2 290.7V137.9c0-19.5 13.8-43.4 30.7-53.1L164.1 8.4c16.9-9.7 44.5-9.7 61.4 0l132.3 76.4c16.9 9.7 30.7 33.6 30.7 53.1v152.8h0z"/><path fill="#fff" d="M157.2 178.9h175.3v-49.3H157.7c-25 0-45.8 8.6-61.6 25.5-38.2 40.6-39.2 143-39.2 143h274.4v-92.6H282v43.3H109.4c1.1-16.1 8.5-45 22.5-59.9 6.4-6.8 14.5-10 25.3-10h0z"/></svg>