<svg xmlns="http://www.w3.org/2000/svg" width="300" height="300" viewBox="0 0 176 176"><path d="M108.15 107.98c-.26-.81-.82-1.47-1.58-1.85L78.35 91.69 48.02 76.17c-.46-.23-.95-.35-1.45-.35-.33 0-.66.05-.98.16-.81.26-1.47.82-1.86 1.58a3.16 3.16 0 0 0-.2 2.43c.26.81.82 1.47 1.58 1.85l28.62 14.64 29.93 15.31a3.16 3.16 0 0 0 2.43.2c.81-.26 1.47-.82 1.86-1.58a3.16 3.16 0 0 0 .2-2.43zm-18.21 28.58l-36.71-18.78-21.84-11.17c-.46-.23-.95-.35-1.45-.35-.33 0-.66.05-.98.16-.81.26-1.47.82-1.86 1.58a3.16 3.16 0 0 0-.2 2.43c.26.81.82 1.47 1.58 1.85l20.13 10.3 38.42 19.66a3.16 3.16 0 0 0 2.43.2c.81-.26 1.47-.82 1.85-1.58a3.16 3.16 0 0 0 .2-2.43c-.25-.82-.81-1.48-1.57-1.87zm8.23-15.84l-32.01-16.37-26.55-13.58c-.46-.23-.95-.35-1.45-.35-.33 0-.66.05-.98.16-.81.26-1.47.82-1.86 1.58a3.16 3.16 0 0 0-.2 2.43c.26.81.82 1.47 1.58 1.85l24.83 12.7 33.72 17.25a3.16 3.16 0 0 0 2.43.2c.81-.26 1.47-.82 1.85-1.58a3.16 3.16 0 0 0 .2-2.43 3.13 3.13 0 0 0-1.56-1.86zM81.4 151.03L41.09 130.4l-18.24-9.33c-.46-.23-.95-.35-1.45-.35-.33 0-.66.05-.98.16-.81.26-1.47.82-1.86 1.58a3.16 3.16 0 0 0-.2 2.43c.26.81.82 1.47 1.58 1.85l16.52 8.45 42.03 21.5a3.16 3.16 0 0 0 2.43.2c.81-.26 1.47-.82 1.85-1.58a3.16 3.16 0 0 0 .2-2.43c-.25-.81-.81-1.46-1.57-1.85z" fill="#039ed4"/><path d="M89.3 80.3c-2.75-3.27-3.91-6.6-3.93-6.66l-.16-.47c-1 1.12-1.62 2.6-1.62 4.23 0 2.36 1.29 4.41 3.19 5.51.93.54 2.01.85 3.17.85.86 0 1.68-.17 2.43-.48-1.19-.92-2.21-1.95-3.08-2.98zm6.04-6.27c-.58-.93-1.39-1.71-2.36-2.23l.45 1.17c.24.64.58 1.3 1.06 1.94a7.3 7.3 0 0 0 1.77 1.67c-.12-.93-.45-1.79-.92-2.55z" fill="#494b4b"/><g fill="#bbbaba"><path d="M150.88 76.18c4.96 0 9-4.04 9-9V27.8c0-4.96-4.04-9-9-9h-2.39l-3.85 4h6.24c2.76 0 5 2.24 5 5v39.38c0 2.76-2.24 5-5 5h-29.96c-.12.44-.24.87-.38 1.3l5.27 2.7h25.07zM42.58 22.8h69.68 0c-1.02-1.17-1.71-2.55-2.05-4h0-67.63c-4.96 0-9 4.04-9 9v33.04l2.2-4.3 1.8-3.52V27.8a5.01 5.01 0 0 1 5-5z"/><path d="M126.62 22.8h0 17.86.16l3.85-4h-.13-20.1 0a8.39 8.39 0 0 1-1.04 3.13l-.6.87zm30.65 66.09v28.53c0 2.76-2.24 5-5 5h-34.05l-2.05 4h36.1c4.96 0 9-4.04 9-9V88.89c0-4.96-4.04-9-9-9h-19.68a7.65 7.65 0 0 1 .82.79c.01.02.03.03.04.05.26.28.49.58.71.9.01.01.01.02.02.03.19.28.36.58.51.89.04.07.08.15.11.22a11.22 11.22 0 0 1 .41 1.01l.03.12h17.02a4.99 4.99 0 0 1 5.01 4.99zM40.54 155.84h4.25l-1.79-.91-11.13-5.7c1.05 3.81 4.53 6.61 8.67 6.61zm120.73-9v-7.26c0-4.96-4.04-9-9-9h-38.23l-2.05 4h40.27c2.76 0 5 2.24 5 5v7.26c0 2.76-2.24 5-5 5h-49.11l-2.05 4h51.15c4.98 0 9.02-4.03 9.02-9z"/></g><path d="M18.62 153.75l7.28-7.57-7.28-3.73zM46.21 44.94L18.62 98.88l-4 7.82-9.83 19.2c-1.11 2.18-.25 4.86 1.93 5.97l7.9 4.04 4 2.05 10.18 5.21 5.86-6.09-15.85-8.11c-1.35-.69-2.35-1.87-2.82-3.31s-.34-2.98.35-4.34c.69-1.35 1.87-2.35 3.31-2.82s2.98-.34 4.34.35l18.91 9.67 3.91-4.06-19.46-9.95c-1.35-.69-2.35-1.87-2.82-3.31s-.34-2.98.35-4.34c.69-1.35 1.87-2.35 3.31-2.82s2.98-.34 4.34.35l22.51 11.52 4.7-4.88-24.16-12.37c-1.35-.69-2.35-1.87-2.82-3.31s-.34-2.98.35-4.34c.69-1.35 1.87-2.35 3.31-2.82s2.98-.34 4.34.35l27.22 13.92 3.95-4.11-27.95-14.3c-1.35-.69-2.35-1.87-2.82-3.31s-.34-2.98.35-4.34c.69-1.35 1.87-2.35 3.31-2.82s2.98-.34 4.34.35l31 15.86 6.64-6.89c-1.91-1.1-3.19-3.15-3.19-5.51 0-1.63.61-3.1 1.62-4.23a6.37 6.37 0 0 1 2.01-1.51 6.39 6.39 0 0 1 2.05-.59l.69-.04a6.41 6.41 0 0 1 3.02.76c.97.52 1.78 1.3 2.36 2.23l5.76-5.99-48.94-25.01c-2.18-1.11-4.86-.25-5.97 1.93zm69.76-26.14c.31.63.77 1.17 1.39 1.53 1.76 1.01 4.07.31 5.44-1.53.12-.16.25-.32.35-.5 1.28-2.23.78-4.92-1.13-6.03-1.91-1.1-4.5-.19-5.79 2.03-.86 1.51-.9 3.21-.26 4.5zm10.65 4c-1.63 2.14-4.16 3.33-6.84 3.38-2.92 7.86-4.52 14.64-4.52 19.25 0 1.92.72 3.92 1.69 6.14l27.68-28.77h-.16-17.85zM24.49 4.24c-3.24 0-5.87 2.63-5.87 5.87V90.1l14.96-29.25V27.8c0-4.96 4.04-9 9-9h67.63c-.48-2.06-.23-4.25.88-6.18 2.42-4.2 8-5.52 12.45-2.95 3.4 1.96 5.16 5.63 4.71 9.13h20.1.13L162.5 4.24H24.49zm82.81 40.31c0-5.64 3.88-16.65 5.54-21.12a8.79 8.79 0 0 1-.59-.63H42.58c-2.76 0-5 2.24-5 5v25.22l5.07-9.91c2.12-4.14 7.21-5.79 11.35-3.67L87.52 56.6c.7-2.3 2.65-7.82 5.88-9.77 0 0-1.51 7.81-.63 12.46l-4.37-2.23 15.6 7.97 6.81-7.08-.56-1.55c-1.45-4.02-2.95-8.18-2.95-11.85zm10.42-18.56l.57-1.54c.71.12 1.43.13 2.13.05 1.44-.17 2.79-.75 3.88-1.7.55-.48 1.04-1.05 1.43-1.72.42-.72.67-1.5.8-2.28.29-1.73-.08-3.52-1.03-5.05.42 1.56.24 3.38-.6 5.05l-.2.39c-1.86 3.22-5.6 4.53-8.36 2.94-1.26-.72-2.09-1.93-2.45-3.32-.44-1.68-.2-3.63.81-5.38.98-1.69 2.48-2.85 4.09-3.35-2.49.02-4.85 1.24-6.13 3.47-.95 1.64-1.13 3.52-.67 5.26.28 1.05.79 2.04 1.51 2.91.33.4.72.76 1.14 1.09l.45.35-.58 1.56c-1.72 4.69-5.2 14.79-5.2 19.83 0 3.33 1.44 7.31 2.84 11.17.08.21.15.42.22.62l3.09-3.21c-1.19-2.65-2.19-5.18-2.19-7.69-.01-6.03 2.45-13.97 4.45-19.45z" fill="#f3f4f3"/><g fill="#e0e0df"><path d="M94.17 82.16c2.14 1.47 4.85 2.51 8.23 2.51 5.69 0 11.61-2.89 14.82-8.38l-4.11-2.1c-2.16 3.67-6.02 5.97-10.71 5.97-2.66 0-4.69-.54-6.25-1.33-1.34-.68-2.33-1.56-3.06-2.46a9.5 9.5 0 0 1-1.27-2.04H87.8a21.43 21.43 0 0 0 2.85 4.57c.96 1.14 2.11 2.29 3.52 3.26zm8.23-4.01c3.88 0 7.08-1.88 8.92-4.89l-10.21-5.22-5.76 5.99c.47.76.8 1.62.92 2.55 1.39.93 3.35 1.57 6.13 1.57zm48.48-5.97c2.76 0 5-2.24 5-5V27.8c0-2.76-2.24-5-5-5h-6.24l-27.68 28.77.95 2.1c1.75 3.81 3.74 8.13 3.74 13.21 0 2.24-.39 4.48-1.11 6.61a21.24 21.24 0 0 0 .38-1.3h29.96zm-36.29-1.74l4.23 2.16c.52-1.74.82-3.64.82-5.73 0-4.65-1.89-8.75-3.56-12.37l-.63-1.38-3.09 3.21c1.33 3.68 2.62 7.44 2.62 10.68.01 1.21-.14 2.35-.39 3.43z"/><path d="M157.27 146.84v-7.26c0-2.76-2.24-5-5-5H112l-8.83 17.27h49.11c2.75-.01 4.99-2.25 4.99-5.01zm9.08-142.6h-3.85L148.48 18.8h2.39c4.96 0 9 4.04 9 9v39.38c0 4.96-4.04 9-9 9H125.8l-5.27-2.7 10.49 5.37a8.31 8.31 0 0 1 1.56 1.04h19.68c4.96 0 9 4.04 9 9v28.53c0 4.96-4.04 9-9 9h-36.1l2.05-4h34.05c2.76 0 5-2.24 5-5V88.89c0-2.76-2.24-5-5-5h-17.02c.65 2.11.46 4.35-.55 6.31l-20.65 40.37h38.23c4.96 0 9 4.04 9 9v7.26c0 4.96-4.04 9-9 9h-51.15l-2.89 5.65h68.12c3.24 0 5.87-2.63 5.87-5.87V10.11c0-3.24-2.63-5.87-5.87-5.87zm-53.36 62.78c0-2.66-.99-5.77-2.17-9.07L104 65.03l8.75 4.47c.15-.79.24-1.62.24-2.48zM25.9 146.18l-7.29 7.57v1.86c0 3.24 2.63 5.87 5.87 5.87h31.34l-11.03-5.65-18.89-9.65z"/></g><path d="M85.37 73.64l-.16-.47c-1 1.12-1.62 2.6-1.62 4.23 0 3.51 2.85 6.36 6.36 6.36.86 0 1.68-.17 2.43-.48-4.99-3.84-6.98-9.56-7.01-9.64zm7.61-1.84l.45 1.17a7.37 7.37 0 0 0 2.83 3.61c-.27-2.07-1.52-3.83-3.28-4.78z" fill="#494b4b"/><path d="M37.58 27.8c0-2.76 2.24-5 5-5h69.68 2.38 9.66 2.32 17.86 6.4c2.76 0 5 2.24 5 5v39.38c0 2.76-2.24 5-5 5h-29.96l-.38 1.3 5.27 2.7h25.07c4.96 0 9-4.04 9-9V27.8c0-4.96-4.04-9-9-9h-2.52-20.1-1.72-1.63-2.09-6.83-2.09-1.9-1.78-67.64c-4.96 0-9 4.04-9 9v33.04l4-7.82V27.8zm114.69 52.09h-19.68c1.21 1.01 2.13 2.34 2.62 3.88l.03.12h17.02c2.76 0 5 2.24 5 5v28.53c0 2.76-2.24 5-5 5h-34.05l-2.05 4h36.1c4.96 0 9-4.04 9-9V88.89c.01-4.96-4.03-9-8.99-9zM40.54 155.84h4.25l-12.92-6.61c1.05 3.81 4.53 6.61 8.67 6.61zm111.73-25.26h-38.23l-2.05 4h40.27c2.76 0 5 2.24 5 5v7.26c0 2.76-2.24 5-5 5h-49.11l-2.05 4h51.15c4.96 0 9-4.04 9-9v-7.26c.02-4.96-4.02-9-8.98-9z" fill="#bbbaba"/><path d="M107.71 103.9L49.16 73.95c-1.35-.69-2.89-.82-4.34-.35-1.44.47-2.62 1.47-3.31 2.82s-.82 2.89-.35 4.34c.47 1.44 1.47 2.62 2.82 3.31l58.55 29.95c.81.42 1.69.63 2.58.63.59 0 1.18-.09 1.75-.28 1.44-.47 2.62-1.47 3.31-2.82s.82-2.89.35-4.34a5.59 5.59 0 0 0-2.81-3.31zm.24 6.51c-.39.76-1.05 1.32-1.86 1.58a3.16 3.16 0 0 1-2.43-.2L45.12 81.84c-.76-.39-1.32-1.05-1.58-1.85a3.16 3.16 0 0 1 .2-2.43c.39-.76 1.05-1.32 1.86-1.58.32-.1.65-.16.98-.16.5 0 .99.12 1.45.35l58.55 29.95c.76.39 1.32 1.05 1.58 1.85a3.23 3.23 0 0 1-.21 2.44zm-8.65 8.09L40.75 88.55c-1.35-.69-2.89-.82-4.34-.35-1.44.47-2.62 1.47-3.31 2.82s-.82 2.89-.35 4.34c.47 1.44 1.47 2.62 2.82 3.31l58.55 29.95c.81.42 1.69.63 2.58.63.59 0 1.18-.09 1.75-.28 1.44-.47 2.62-1.47 3.31-2.82s.82-2.89.35-4.34a5.55 5.55 0 0 0-2.81-3.31zm.25 6.51c-.39.76-1.05 1.32-1.85 1.58a3.16 3.16 0 0 1-2.43-.2L36.72 96.44c-.76-.39-1.32-1.05-1.58-1.85a3.16 3.16 0 0 1 .2-2.43c.39-.76 1.05-1.32 1.86-1.58.32-.1.65-.16.98-.16.5 0 .99.12 1.45.35l58.55 29.95c.76.39 1.32 1.05 1.58 1.86a3.21 3.21 0 0 1-.21 2.43zm-8.47 9.33l-58.55-29.95c-1.35-.69-2.89-.82-4.34-.35-1.44.47-2.62 1.47-3.31 2.82s-.82 2.89-.35 4.34c.47 1.44 1.47 2.62 2.82 3.31l58.55 29.95c.81.42 1.69.63 2.58.63.59 0 1.18-.09 1.75-.28 1.44-.47 2.62-1.47 3.31-2.82s.82-2.89.35-4.34c-.46-1.44-1.46-2.62-2.81-3.31zm.25 6.51c-.39.76-1.05 1.32-1.85 1.58a3.16 3.16 0 0 1-2.43-.2L28.5 112.28c-.76-.39-1.32-1.05-1.58-1.85a3.16 3.16 0 0 1 .2-2.43c.39-.76 1.05-1.32 1.86-1.58.32-.1.65-.16.98-.16.5 0 .99.12 1.45.35l58.55 29.95c.76.39 1.32 1.05 1.58 1.86.24.81.17 1.67-.21 2.43zm-8.79 7.95l-58.55-29.95c-1.35-.69-2.89-.82-4.34-.35-1.44.47-2.62 1.47-3.31 2.82s-.82 2.89-.35 4.34c.47 1.44 1.47 2.62 2.82 3.31l58.55 29.95c.81.42 1.69.63 2.58.63.59 0 1.18-.09 1.75-.28 1.44-.47 2.62-1.47 3.31-2.82s.82-2.89.35-4.34c-.46-1.44-1.46-2.62-2.81-3.31zm.25 6.51c-.39.76-1.05 1.32-1.85 1.58a3.16 3.16 0 0 1-2.43-.2l-58.55-29.95c-.76-.39-1.32-1.05-1.58-1.85a3.16 3.16 0 0 1 .2-2.43c.39-.76 1.05-1.32 1.86-1.58.32-.1.65-.16.98-.16.5 0 .99.12 1.45.35l58.55 29.95c.76.39 1.32 1.05 1.58 1.86.24.81.17 1.67-.21 2.43zM166.35.24H24.49c-5.44 0-9.87 4.43-9.87 9.87v87.81L1.23 124.08c-2.12 4.14-.47 9.23 3.67 11.35l9.72 4.97v15.21c0 5.44 4.43 9.87 9.87 9.87h39.16l18.28 9.35a8.37 8.37 0 0 0 3.83.92c3.07 0 6.03-1.68 7.52-4.59l2.91-5.68h70.17c5.44 0 9.87-4.43 9.87-9.87V10.11c-.01-5.45-4.44-9.87-9.88-9.87zM24.49 161.49c-3.24 0-5.87-2.63-5.87-5.87v-13.17l37.21 19.04H24.49zm65.23 7.86c-1.11 2.18-3.79 3.04-5.97 1.93l-11.32-5.79h19.26l-1.97 3.86zm4.02-7.86H64.61l-45.99-23.53-4-2.05-7.9-4.04c-2.18-1.11-3.04-3.79-1.93-5.97l9.83-19.21 4-7.82 27.59-53.94c1.11-2.18 3.79-3.04 5.97-1.93l59.14 30.25c-1.83 3.01-5.04 4.89-8.92 4.89-2.78 0-4.74-.65-6.14-1.57-1.53-1.02-2.37-2.37-2.83-3.61l-.45-1.17c-.9-.49-1.93-.76-3.02-.76-.23 0-.46.01-.69.04-.73.08-1.41.28-2.05.59a6.37 6.37 0 0 0-2.01 1.51l.16.47c.03.09 2.02 5.81 7.02 9.64a16.04 16.04 0 0 0 10.01 3.39c7.33 0 11.85-3.49 14.36-6.42.82-.95 1.53-2 2.16-3.1l10.29 5.26a4.42 4.42 0 0 1 2.2 2.58 4.41 4.41 0 0 1-.27 3.38l-37.4 73.12zM113.5 21.71c-1.92-2.31-2.36-5.55-.85-8.17 1.28-2.22 3.64-3.45 6.13-3.47-1.61.49-3.11 1.65-4.09 3.35-1.86 3.22-1.12 7.11 1.64 8.71s6.5.28 8.36-2.94c1.02-1.77 1.26-3.75.8-5.43 1.38 2.21 1.57 5.01.23 7.33-1.14 1.97-3.13 3.16-5.3 3.42-.7.08-1.41.07-2.13-.05l-.57 1.54c-2 5.48-4.46 13.42-4.46 19.44 0 2.94 1.37 5.92 2.82 9.07 1.67 3.62 3.56 7.73 3.56 12.37 0 2.09-.3 4-.82 5.73l-4.23-2.16c.25-1.08.4-2.23.4-3.43 0-3.43-1.45-7.43-2.85-11.3-1.39-3.85-2.84-7.84-2.84-11.17 0-5.03 3.48-15.14 5.2-19.83l.58-1.56a8.11 8.11 0 0 1-1.58-1.45zm8.52-9.43c1.91 1.1 2.42 3.8 1.13 6.03-1.28 2.23-3.88 3.13-5.79 2.03s-2.42-3.8-1.13-6.03 3.88-3.14 5.79-2.03zm-4.8 64.01c-3.21 5.49-9.13 8.38-14.82 8.38-3.38 0-6.09-1.05-8.23-2.51-3.51-2.4-5.49-5.93-6.36-7.84h4.02c.67 1.47 1.95 3.29 4.33 4.5 1.56.79 3.59 1.33 6.25 1.33 4.7 0 8.56-2.3 10.71-5.97l4.1 2.11zm55 79.33c0 3.24-2.63 5.87-5.87 5.87H98.23l36.46-71.28c1.03-2.01 1.21-4.29.52-6.44-.69-2.14-2.18-3.89-4.19-4.92l-10.49-5.37c.71-2.12 1.11-4.36 1.11-6.61 0-5.08-1.99-9.4-3.74-13.21-1.42-3.07-2.64-5.73-2.64-8.24 0-4.61 1.6-11.39 4.52-19.25 3.02-.06 5.87-1.56 7.42-4.25 2.42-4.2.78-9.69-3.67-12.25-4.45-2.57-10.02-1.25-12.45 2.95-2.04 3.52-1.19 7.95 1.76 10.8-1.66 4.46-5.54 15.48-5.54 21.12 0 3.68 1.5 7.83 2.95 11.85 1.4 3.88 2.73 7.55 2.73 10.62a13.48 13.48 0 0 1-.24 2.49L88.41 57.05l4.37 2.23c-.89-4.66.63-12.46.63-12.46-3.23 1.95-5.19 7.47-5.88 9.77L54 39.45c-4.14-2.12-9.23-.47-11.35 3.67L18.62 90.09V10.11c0-3.24 2.63-5.87 5.87-5.87h141.86c3.24 0 5.87 2.63 5.87 5.87v145.51z"/><path d="M131.41 85a4.36 4.36 0 0 0-2.2-2.58l-10.29-5.26c-.62 1.1-1.34 2.15-2.16 3.1-2.5 2.93-7.03 6.42-14.36 6.42a16.1 16.1 0 0 1-10.01-3.39c-.75.31-1.57.48-2.43.48a6.34 6.34 0 0 1-3.17-.85l-6.64 6.89 27.55 14.09c1.35.69 2.35 1.87 2.82 3.31s.34 2.98-.35 4.34c-.69 1.35-1.87 2.35-3.31 2.82-.58.19-1.17.28-1.75.28-.89 0-1.77-.21-2.58-.63L71.92 98.36l-3.95 4.11L99.3 118.5c1.35.69 2.35 1.87 2.82 3.31s.34 2.98-.35 4.34c-.69 1.35-1.87 2.35-3.31 2.82-.58.19-1.17.28-1.75.28-.89 0-1.77-.21-2.58-.63l-34.39-17.59-4.7 4.88 36.04 18.44c1.35.69 2.35 1.87 2.82 3.31s.34 2.98-.35 4.34c-.69 1.35-1.87 2.35-3.31 2.82-.58.19-1.17.28-1.75.28-.89 0-1.77-.21-2.58-.63l-39.1-20-3.91 4.06 39.64 20.28c1.35.69 2.35 1.87 2.82 3.31s.34 2.98-.35 4.34c-.69 1.35-1.87 2.35-3.31 2.82-.58.19-1.17.28-1.75.28-.89 0-1.77-.21-2.58-.63l-42.7-21.84-5.86 6.09 35.81 18.32 7.82 4 11.32 5.79c2.18 1.11 4.85.25 5.97-1.93l1.98-3.86 2.05-4 37.4-73.1c.52-1.07.61-2.27.25-3.4z" fill="#e0e0df"/></svg>