<svg xmlns="http://www.w3.org/2000/svg" viewBox="0 0 300 300" xml:space="preserve" style="fill-rule:evenodd;clip-rule:evenodd;stroke-linejoin:round;stroke-miterlimit:2"><path d="M300 30c0-16.557-13.443-30-30-30H30C13.443 0 0 13.443 0 30v240c0 16.557 13.443 30 30 30h240c16.557 0 30-13.443 30-30V30z" style="fill:#7742e6"/><path d="M250.955 71.122 69.932 119.627a28.18 28.18 0 0 0-20.887 27.22v18.989l162.681-43.59c23.139-6.2 39.229-27.169 39.229-51.124zM173.46 154.928 69.932 182.669a28.18 28.18 0 0 0-20.887 27.22v18.989l85.185-22.825c23.14-6.2 39.23-27.169 39.23-51.124v-.001z" style="fill:#fff"/></svg>