<svg xmlns="http://www.w3.org/2000/svg" viewBox="0 0 634 634" fill-rule="evenodd" stroke-linejoin="round" stroke-miterlimit="2"><path d="M511.496 366.567c-5.654 0-11.308.377-16.962 1.508l-80.663-145.119c17.716-21.108 28.647-48.624 28.647-78.402 0-67.471-55.032-122.503-122.503-122.503S197.512 77.083 197.512 144.554c0 29.401 10.177 56.163 27.516 77.271l-84.056 146.627c-6.031-.754-12.439-1.508-18.47-1.508C55.032 366.944 0 421.976 0 489.446s55.032 122.503 122.503 122.503 122.503-55.032 122.503-122.503c0-29.401-10.177-56.163-27.516-77.271l84.056-146.627c6.031.754 12.439 1.508 18.47 1.508 5.654 0 11.308-.377 16.962-1.508l80.663 145.119c-17.716 21.108-28.647 48.624-28.647 78.402 0 67.471 55.032 122.503 122.503 122.503S633.999 556.54 633.999 489.07s-55.032-122.503-122.503-122.503zM320.015 102.337c22.993 0 41.839 18.847 41.839 41.839s-18.847 41.839-41.839 41.839-41.839-18.847-41.839-41.839c-.377-22.993 18.47-41.839 41.839-41.839zM122.126 530.909c-22.993 0-41.839-18.847-41.839-41.839s18.847-41.839 41.839-41.839 41.839 18.847 41.839 41.839c.377 23.37-18.47 41.839-41.839 41.839zm389.371 0c-22.993 0-41.839-18.847-41.839-41.839s18.847-41.839 41.839-41.839 41.839 18.847 41.839 41.839c0 23.37-18.847 41.839-41.839 41.839z" fill="#e34f43" fill-rule="nonzero"/></svg>