<svg xmlns="http://www.w3.org/2000/svg" width="256" height="255" preserveAspectRatio="xMidYMid" xmlns:v="https://vecta.io/nano"><path d="M18.124 127.5c0 43.295 25.161 80.711 61.646 98.441L27.594 82.986c-6.069 13.603-9.47 28.657-9.47 44.515h0zm183.221-5.52c0-13.518-4.856-22.88-9.02-30.166-5.545-9.01-10.742-16.64-10.742-25.65 0-10.055 7.626-19.414 18.367-19.414.485 0 .945.06 1.417.087-19.46-17.828-45.387-28.714-73.863-28.714-38.213 0-71.832 19.606-91.39 49.302l7.039.131c11.441 0 29.151-1.388 29.151-1.388 5.896-.348 6.591 8.313.701 9.01 0 0-5.925.697-12.519 1.043l39.832 118.478 23.937-71.79-17.042-46.692c-5.89-.345-11.47-1.043-11.47-1.043-5.894-.345-5.203-9.358.691-9.01 0 0 18.064 1.388 28.811 1.388 11.439 0 29.151-1.388 29.151-1.388 5.9-.348 6.594 8.313.701 9.01 0 0-5.938.697-12.519 1.043l39.528 117.581 10.91-36.458c4.729-15.129 8.327-25.995 8.327-35.359h0zm-71.921 15.087l-32.818 95.363c9.799 2.881 20.162 4.456 30.899 4.456 12.738 0 24.953-2.202 36.323-6.2-.293-.468-.56-.966-.778-1.507l-33.625-92.112h0zm94.058-62.046c.47 3.484.737 7.224.737 11.247 0 11.1-2.073 23.577-8.317 39.178l-33.411 96.599c32.518-18.963 54.391-54.193 54.391-94.545.002-19.017-4.856-36.899-13.399-52.48h0zM127.505 0C57.2 0 0 57.196 0 127.5c0 70.313 57.2 127.507 127.505 127.507S255.016 197.813 255.016 127.5C255.013 57.196 197.807 0 127.505 0h0zm0 249.163c-67.08 0-121.658-54.578-121.658-121.662S60.422 5.846 127.505 5.846 249.157 60.42 249.157 127.5s-54.574 121.662-121.652 121.662h0z" fill="#20759a"/></svg>